<?xml version="1.0" encoding="UTF-8" standalone="no"?>
<!DOCTYPE svg PUBLIC "-//W3C//DTD SVG 1.1//EN"
 "http://www.w3.org/Graphics/SVG/1.1/DTD/svg11.dtd">
<!-- Generated by graphviz version 2.43.0 (0)
 -->
<!-- Title: FusedAttentionWSTopDownMinimal Pages: 1 -->
<svg width="1438pt" height="1391pt"
 viewBox="0.00 0.00 1438.00 1390.77" xmlns="http://www.w3.org/2000/svg" xmlns:xlink="http://www.w3.org/1999/xlink">
<g id="graph0" class="graph" transform="scale(1 1) rotate(0) translate(18 1372.77)">
<title>FusedAttentionWSTopDownMinimal</title>
<polygon fill="white" stroke="transparent" points="-18,18 -18,-1372.77 1420,-1372.77 1420,18 -18,18"/>
<text text-anchor="middle" x="161.5" y="-1336.37" font-family="Helvetica,sans-Serif" font-size="18.00">FusedAttentionWS top&#45;down test</text>
<text text-anchor="middle" x="161.5" y="-1316.37" font-family="Helvetica,sans-Serif" font-size="18.00">Minimal phase tree for readability</text>
<!-- root -->
<g id="node1" class="node">
<title>root</title>
<ellipse fill="#e2e8f0" stroke="#cbd5e1" cx="935" cy="-1288.38" rx="89.19" ry="18.27"/>
<text text-anchor="middle" x="935" y="-1285.58" font-family="Helvetica,sans-Serif" font-size="11.00">FusedAttentionWS</text>
</g>
<!-- commands -->
<g id="node2" class="node">
<title>commands</title>
<path fill="#fef3c7" stroke="#cbd5e1" d="M778.5,-1213C778.5,-1213 669.5,-1213 669.5,-1213 663.5,-1213 657.5,-1207 657.5,-1201 657.5,-1201 657.5,-1189 657.5,-1189 657.5,-1183 663.5,-1177 669.5,-1177 669.5,-1177 778.5,-1177 778.5,-1177 784.5,-1177 790.5,-1183 790.5,-1189 790.5,-1189 790.5,-1201 790.5,-1201 790.5,-1207 784.5,-1213 778.5,-1213"/>
<text text-anchor="middle" x="724" y="-1192.2" font-family="Helvetica,sans-Serif" font-size="11.00">Command Interface</text>
</g>
<!-- root&#45;&gt;commands -->
<g id="edge1" class="edge">
<title>root&#45;&gt;commands</title>
<path fill="none" stroke="#64748b" d="M859.45,-1278.39C859.45,-1254.3 859.45,-1195 859.45,-1195 859.45,-1195 798.54,-1195 798.54,-1195"/>
<polygon fill="#64748b" stroke="#64748b" points="798.54,-1192.2 790.54,-1195 798.54,-1197.8 798.54,-1192.2"/>
</g>
<!-- run_cmd -->
<g id="node5" class="node">
<title>run_cmd</title>
<path fill="#dbeafe" stroke="#cbd5e1" d="M975.5,-1214C975.5,-1214 894.5,-1214 894.5,-1214 888.5,-1214 882.5,-1208 882.5,-1202 882.5,-1202 882.5,-1188 882.5,-1188 882.5,-1182 888.5,-1176 894.5,-1176 894.5,-1176 975.5,-1176 975.5,-1176 981.5,-1176 987.5,-1182 987.5,-1188 987.5,-1188 987.5,-1202 987.5,-1202 987.5,-1208 981.5,-1214 975.5,-1214"/>
<text text-anchor="middle" x="935" y="-1198.2" font-family="Helvetica,sans-Serif" font-size="11.00">Run Command</text>
<text text-anchor="middle" x="935" y="-1186.2" font-family="Helvetica,sans-Serif" font-size="11.00">funct 4</text>
</g>
<!-- root&#45;&gt;run_cmd -->
<g id="edge2" class="edge">
<title>root&#45;&gt;run_cmd</title>
<path fill="none" stroke="#64748b" d="M935,-1269.93C935,-1269.93 935,-1222.05 935,-1222.05"/>
<polygon fill="#64748b" stroke="#64748b" points="937.8,-1222.05 935,-1214.05 932.2,-1222.05 937.8,-1222.05"/>
</g>
<!-- note -->
<g id="node27" class="node">
<title>note</title>
<polygon fill="#fff7ed" stroke="#fdba74" points="1396,-1220 1020,-1220 1020,-1170 1402,-1170 1402,-1214 1396,-1220"/>
<polyline fill="none" stroke="#fdba74" points="1396,-1220 1396,-1214 "/>
<polyline fill="none" stroke="#fdba74" points="1402,-1214 1396,-1214 "/>
<text text-anchor="middle" x="1211" y="-1204.2" font-family="Helvetica,sans-Serif" font-size="11.00">Test intent:</text>
<text text-anchor="middle" x="1211" y="-1192.2" font-family="Helvetica,sans-Serif" font-size="11.00">Can a phase tree be clearer than the full left&#45;to&#45;right FSM?</text>
<text text-anchor="middle" x="1211" y="-1180.2" font-family="Helvetica,sans-Serif" font-size="11.00">If yes, the next step is to rebuild the detailed graph in this style.</text>
</g>
<!-- root&#45;&gt;note -->
<g id="edge27" class="edge">
<title>root&#45;&gt;note</title>
<path fill="none" stroke="#d97706" stroke-dasharray="5,2" d="M1003.75,-1276.56C1003.75,-1251.43 1003.75,-1195 1003.75,-1195 1003.75,-1195 1011.67,-1195 1011.67,-1195"/>
<polygon fill="#d97706" stroke="#d97706" points="1011.67,-1197.8 1019.67,-1195 1011.67,-1192.2 1011.67,-1197.8"/>
</g>
<!-- config_cmds -->
<g id="node3" class="node">
<title>config_cmds</title>
<path fill="#fef3c7" stroke="#cbd5e1" d="M563,-1113C563,-1113 389,-1113 389,-1113 383,-1113 377,-1107 377,-1101 377,-1101 377,-1063 377,-1063 377,-1057 383,-1051 389,-1051 389,-1051 563,-1051 563,-1051 569,-1051 575,-1057 575,-1063 575,-1063 575,-1101 575,-1101 575,-1107 569,-1113 563,-1113"/>
<text text-anchor="middle" x="476" y="-1097.2" font-family="Helvetica,sans-Serif" font-size="11.00">Setup Commands</text>
<text text-anchor="middle" x="476" y="-1085.2" font-family="Helvetica,sans-Serif" font-size="11.00">funct 0..3</text>
<text text-anchor="middle" x="476" y="-1073.2" font-family="Helvetica,sans-Serif" font-size="11.00">set_qk_addrs / set_vout_addrs /</text>
<text text-anchor="middle" x="476" y="-1061.2" font-family="Helvetica,sans-Serif" font-size="11.00">set_dims / set_params</text>
</g>
<!-- commands&#45;&gt;config_cmds -->
<g id="edge3" class="edge">
<title>commands&#45;&gt;config_cmds</title>
<path fill="none" stroke="#64748b" d="M657.21,-1195C583.76,-1195 476,-1195 476,-1195 476,-1195 476,-1121.18 476,-1121.18"/>
<polygon fill="#64748b" stroke="#64748b" points="478.8,-1121.18 476,-1113.18 473.2,-1121.18 478.8,-1121.18"/>
</g>
<!-- service_cmds -->
<g id="node4" class="node">
<title>service_cmds</title>
<path fill="#fef3c7" stroke="#cbd5e1" d="M829,-1107C829,-1107 619,-1107 619,-1107 613,-1107 607,-1101 607,-1095 607,-1095 607,-1069 607,-1069 607,-1063 613,-1057 619,-1057 619,-1057 829,-1057 829,-1057 835,-1057 841,-1063 841,-1069 841,-1069 841,-1095 841,-1095 841,-1101 835,-1107 829,-1107"/>
<text text-anchor="middle" x="724" y="-1091.2" font-family="Helvetica,sans-Serif" font-size="11.00">Service Commands</text>
<text text-anchor="middle" x="724" y="-1079.2" font-family="Helvetica,sans-Serif" font-size="11.00">funct 5..7</text>
<text text-anchor="middle" x="724" y="-1067.2" font-family="Helvetica,sans-Serif" font-size="11.00">status / read_counter / clear_counters</text>
</g>
<!-- commands&#45;&gt;service_cmds -->
<g id="edge4" class="edge">
<title>commands&#45;&gt;service_cmds</title>
<path fill="none" stroke="#64748b" d="M724,-1176.84C724,-1176.84 724,-1115.27 724,-1115.27"/>
<polygon fill="#64748b" stroke="#64748b" points="726.8,-1115.27 724,-1107.27 721.2,-1115.27 726.8,-1115.27"/>
</g>
<!-- validate -->
<g id="node6" class="node">
<title>validate</title>
<path fill="#dbeafe" stroke="#cbd5e1" d="M984.53,-1116.46C984.53,-1116.46 884.47,-1085.54 884.47,-1085.54 878.73,-1083.77 878.73,-1080.23 884.47,-1078.46 884.47,-1078.46 984.53,-1047.54 984.53,-1047.54 990.27,-1045.77 1001.73,-1045.77 1007.47,-1047.54 1007.47,-1047.54 1107.53,-1078.46 1107.53,-1078.46 1113.27,-1080.23 1113.27,-1083.77 1107.53,-1085.54 1107.53,-1085.54 1007.47,-1116.46 1007.47,-1116.46 1001.73,-1118.23 990.27,-1118.23 984.53,-1116.46"/>
<text text-anchor="middle" x="996" y="-1085.2" font-family="Helvetica,sans-Serif" font-size="11.00">Config +</text>
<text text-anchor="middle" x="996" y="-1073.2" font-family="Helvetica,sans-Serif" font-size="11.00">dimensions valid?</text>
</g>
<!-- run_cmd&#45;&gt;validate -->
<g id="edge5" class="edge">
<title>run_cmd&#45;&gt;validate</title>
<path fill="none" stroke="#64748b" d="M935,-1175.83C935,-1175.83 935,-1109.26 935,-1109.26"/>
<polygon fill="#64748b" stroke="#64748b" points="937.8,-1109.26 935,-1101.26 932.2,-1109.26 937.8,-1109.26"/>
</g>
<!-- fill_q -->
<g id="node7" class="node">
<title>fill_q</title>
<path fill="#dbeafe" stroke="#cbd5e1" d="M969,-994C969,-994 809,-994 809,-994 803,-994 797,-988 797,-982 797,-982 797,-956 797,-956 797,-950 803,-944 809,-944 809,-944 969,-944 969,-944 975,-944 981,-950 981,-956 981,-956 981,-982 981,-982 981,-988 975,-994 969,-994"/>
<text text-anchor="middle" x="889" y="-978.2" font-family="Helvetica,sans-Serif" font-size="11.00">Fill Q Buffer</text>
<text text-anchor="middle" x="889" y="-966.2" font-family="Helvetica,sans-Serif" font-size="11.00">s_req_fill_q &#45;&gt; s_wait_fill_q</text>
<text text-anchor="middle" x="889" y="-954.2" font-family="Helvetica,sans-Serif" font-size="11.00">reads packed Q into aTileBuf</text>
</g>
<!-- validate&#45;&gt;fill_q -->
<g id="edge6" class="edge">
<title>validate&#45;&gt;fill_q</title>
<path fill="none" stroke="#64748b" d="M927,-1064.84C927,-1064.84 927,-1002.31 927,-1002.31"/>
<polygon fill="#64748b" stroke="#64748b" points="929.8,-1002.31 927,-994.31 924.2,-1002.31 929.8,-1002.31"/>
<text text-anchor="middle" x="914.5" y="-1036.57" font-family="Helvetica,sans-Serif" font-size="10.00">valid</text>
</g>
<!-- resp -->
<g id="node26" class="node">
<title>resp</title>
<path fill="#e2e8f0" stroke="#cbd5e1" d="M1147.5,-44C1147.5,-44 1060.5,-44 1060.5,-44 1054.5,-44 1048.5,-38 1048.5,-32 1048.5,-32 1048.5,-18 1048.5,-18 1048.5,-12 1054.5,-6 1060.5,-6 1060.5,-6 1147.5,-6 1147.5,-6 1153.5,-6 1159.5,-12 1159.5,-18 1159.5,-18 1159.5,-32 1159.5,-32 1159.5,-38 1153.5,-44 1147.5,-44"/>
<text text-anchor="middle" x="1104" y="-28.2" font-family="Helvetica,sans-Serif" font-size="11.00">Respond</text>
<text text-anchor="middle" x="1104" y="-16.2" font-family="Helvetica,sans-Serif" font-size="11.00">s_resp &#45;&gt; s_idle</text>
</g>
<!-- validate&#45;&gt;resp -->
<g id="edge7" class="edge">
<title>validate&#45;&gt;resp</title>
<path fill="none" stroke="#64748b" d="M1097.5,-1075.25C1097.5,-1075.25 1097.5,-52.23 1097.5,-52.23"/>
<polygon fill="#64748b" stroke="#64748b" points="1100.3,-52.23 1097.5,-44.23 1094.7,-52.23 1100.3,-52.23"/>
<text text-anchor="middle" x="1080.5" y="-566.74" font-family="Helvetica,sans-Serif" font-size="10.00">invalid</text>
</g>
<!-- qk_phase -->
<g id="node8" class="node">
<title>qk_phase</title>
<path fill="#dbeafe" stroke="#cbd5e1" d="M768,-894C768,-894 714,-894 714,-894 708,-894 702,-888 702,-882 702,-882 702,-870 702,-870 702,-864 708,-858 714,-858 714,-858 768,-858 768,-858 774,-858 780,-864 780,-870 780,-870 780,-882 780,-882 780,-888 774,-894 768,-894"/>
<text text-anchor="middle" x="741" y="-873.2" font-family="Helvetica,sans-Serif" font-size="11.00">QK Phase</text>
</g>
<!-- fill_q&#45;&gt;qk_phase -->
<g id="edge8" class="edge">
<title>fill_q&#45;&gt;qk_phase</title>
<path fill="none" stroke="#64748b" d="M796.95,-969C766.86,-969 741,-969 741,-969 741,-969 741,-902.37 741,-902.37"/>
<polygon fill="#64748b" stroke="#64748b" points="743.8,-902.37 741,-894.37 738.2,-902.37 743.8,-902.37"/>
</g>
<!-- qk_tile_loop -->
<g id="node9" class="node">
<title>qk_tile_loop</title>
<path fill="#dbeafe" stroke="#cbd5e1" d="M566.5,-808C566.5,-808 455.5,-808 455.5,-808 449.5,-808 443.5,-802 443.5,-796 443.5,-796 443.5,-782 443.5,-782 443.5,-776 449.5,-770 455.5,-770 455.5,-770 566.5,-770 566.5,-770 572.5,-770 578.5,-776 578.5,-782 578.5,-782 578.5,-796 578.5,-796 578.5,-802 572.5,-808 566.5,-808"/>
<text text-anchor="middle" x="511" y="-792.2" font-family="Helvetica,sans-Serif" font-size="11.00">QK Tile Loop</text>
<text text-anchor="middle" x="511" y="-780.2" font-family="Helvetica,sans-Serif" font-size="11.00">repeat over KV tiles</text>
</g>
<!-- qk_phase&#45;&gt;qk_tile_loop -->
<g id="edge9" class="edge">
<title>qk_phase&#45;&gt;qk_tile_loop</title>
<path fill="none" stroke="#64748b" d="M741,-857.62C741,-833.72 741,-795 741,-795 741,-795 586.76,-795 586.76,-795"/>
<polygon fill="#64748b" stroke="#64748b" points="586.76,-792.2 578.76,-795 586.76,-797.8 586.76,-792.2"/>
</g>
<!-- qk_setup_tile -->
<g id="node10" class="node">
<title>qk_setup_tile</title>
<path fill="#dbeafe" stroke="#cbd5e1" d="M136,-720C136,-720 12,-720 12,-720 6,-720 0,-714 0,-708 0,-708 0,-670 0,-670 0,-664 6,-658 12,-658 12,-658 136,-658 136,-658 142,-658 148,-664 148,-670 148,-670 148,-708 148,-708 148,-714 142,-720 136,-720"/>
<text text-anchor="middle" x="74" y="-704.2" font-family="Helvetica,sans-Serif" font-size="11.00">Setup K Tile</text>
<text text-anchor="middle" x="74" y="-692.2" font-family="Helvetica,sans-Serif" font-size="11.00">s_qk_setup_tile</text>
<text text-anchor="middle" x="74" y="-680.2" font-family="Helvetica,sans-Serif" font-size="11.00">choose activeTileCols,</text>
<text text-anchor="middle" x="74" y="-668.2" font-family="Helvetica,sans-Serif" font-size="11.00">set K tile base</text>
</g>
<!-- qk_tile_loop&#45;&gt;qk_setup_tile -->
<g id="edge10" class="edge">
<title>qk_tile_loop&#45;&gt;qk_setup_tile</title>
<path fill="none" stroke="#64748b" d="M443.2,-795C320.45,-795 74,-795 74,-795 74,-795 74,-728.23 74,-728.23"/>
<polygon fill="#64748b" stroke="#64748b" points="76.8,-728.23 74,-720.23 71.2,-728.23 76.8,-728.23"/>
</g>
<!-- k_fill -->
<g id="node11" class="node">
<title>k_fill</title>
<path fill="#dbeafe" stroke="#cbd5e1" d="M337.5,-714C337.5,-714 192.5,-714 192.5,-714 186.5,-714 180.5,-708 180.5,-702 180.5,-702 180.5,-676 180.5,-676 180.5,-670 186.5,-664 192.5,-664 192.5,-664 337.5,-664 337.5,-664 343.5,-664 349.5,-670 349.5,-676 349.5,-676 349.5,-702 349.5,-702 349.5,-708 343.5,-714 337.5,-714"/>
<text text-anchor="middle" x="265" y="-698.2" font-family="Helvetica,sans-Serif" font-size="11.00">Fill K Tile</text>
<text text-anchor="middle" x="265" y="-686.2" font-family="Helvetica,sans-Serif" font-size="11.00">s_req_fill_b &#45;&gt; s_wait_fill_b</text>
<text text-anchor="middle" x="265" y="-674.2" font-family="Helvetica,sans-Serif" font-size="11.00">reads K tile into bTileBuf</text>
</g>
<!-- qk_tile_loop&#45;&gt;k_fill -->
<g id="edge11" class="edge">
<title>qk_tile_loop&#45;&gt;k_fill</title>
<path fill="none" stroke="#64748b" d="M443.45,-782C370.63,-782 265,-782 265,-782 265,-782 265,-722.41 265,-722.41"/>
<polygon fill="#64748b" stroke="#64748b" points="267.8,-722.41 265,-714.41 262.2,-722.41 267.8,-722.41"/>
</g>
<!-- qk_chunk_loop -->
<g id="node12" class="node">
<title>qk_chunk_loop</title>
<path fill="#dbeafe" stroke="#cbd5e1" d="M628.5,-720C628.5,-720 393.5,-720 393.5,-720 387.5,-720 381.5,-714 381.5,-708 381.5,-708 381.5,-670 381.5,-670 381.5,-664 387.5,-658 393.5,-658 393.5,-658 628.5,-658 628.5,-658 634.5,-658 640.5,-664 640.5,-670 640.5,-670 640.5,-708 640.5,-708 640.5,-714 634.5,-720 628.5,-720"/>
<text text-anchor="middle" x="511" y="-704.2" font-family="Helvetica,sans-Serif" font-size="11.00">QK Chunk Loop</text>
<text text-anchor="middle" x="511" y="-692.2" font-family="Helvetica,sans-Serif" font-size="11.00">s_qk_prep_chunk &#45;&gt; s_qk_load_weights</text>
<text text-anchor="middle" x="511" y="-680.2" font-family="Helvetica,sans-Serif" font-size="11.00">&#45;&gt; s_qk_feed_rows &#45;&gt; s_qk_wait_chunk_out</text>
<text text-anchor="middle" x="511" y="-668.2" font-family="Helvetica,sans-Serif" font-size="11.00">repeat over dK in chunks of nRows</text>
</g>
<!-- qk_tile_loop&#45;&gt;qk_chunk_loop -->
<g id="edge12" class="edge">
<title>qk_tile_loop&#45;&gt;qk_chunk_loop</title>
<path fill="none" stroke="#64748b" d="M511,-769.72C511,-769.72 511,-728.02 511,-728.02"/>
<polygon fill="#64748b" stroke="#64748b" points="513.8,-728.02 511,-720.02 508.2,-728.02 513.8,-728.02"/>
</g>
<!-- score_store -->
<g id="node13" class="node">
<title>score_store</title>
<path fill="#dbeafe" stroke="#cbd5e1" d="M887,-714C887,-714 685,-714 685,-714 679,-714 673,-708 673,-702 673,-702 673,-676 673,-676 673,-670 679,-664 685,-664 685,-664 887,-664 887,-664 893,-664 899,-670 899,-676 899,-676 899,-702 899,-702 899,-708 893,-714 887,-714"/>
<text text-anchor="middle" x="786" y="-698.2" font-family="Helvetica,sans-Serif" font-size="11.00">Scale + Causal Mask + Store Scores</text>
<text text-anchor="middle" x="786" y="-686.2" font-family="Helvetica,sans-Serif" font-size="11.00">s_qk_store_scores</text>
<text text-anchor="middle" x="786" y="-674.2" font-family="Helvetica,sans-Serif" font-size="11.00">writes BF16 scores into scoreBuf</text>
</g>
<!-- qk_tile_loop&#45;&gt;score_store -->
<g id="edge13" class="edge">
<title>qk_tile_loop&#45;&gt;score_store</title>
<path fill="none" stroke="#64748b" d="M578.73,-782C628.51,-782 687.5,-782 687.5,-782 687.5,-782 687.5,-722.41 687.5,-722.41"/>
<polygon fill="#64748b" stroke="#64748b" points="690.3,-722.41 687.5,-714.41 684.7,-722.41 690.3,-722.41"/>
</g>
<!-- softmax_phase -->
<g id="node14" class="node">
<title>softmax_phase</title>
<path fill="#cffafe" stroke="#cbd5e1" d="M749.5,-608C749.5,-608 666.5,-608 666.5,-608 660.5,-608 654.5,-602 654.5,-596 654.5,-596 654.5,-584 654.5,-584 654.5,-578 660.5,-572 666.5,-572 666.5,-572 749.5,-572 749.5,-572 755.5,-572 761.5,-578 761.5,-584 761.5,-584 761.5,-596 761.5,-596 761.5,-602 755.5,-608 749.5,-608"/>
<text text-anchor="middle" x="708" y="-587.2" font-family="Helvetica,sans-Serif" font-size="11.00">Softmax Phase</text>
</g>
<!-- score_store&#45;&gt;softmax_phase -->
<g id="edge14" class="edge">
<title>score_store&#45;&gt;softmax_phase</title>
<path fill="none" stroke="#64748b" d="M717.25,-663.76C717.25,-663.76 717.25,-616.01 717.25,-616.01"/>
<polygon fill="#64748b" stroke="#64748b" points="720.05,-616.01 717.25,-608.01 714.45,-616.01 720.05,-616.01"/>
</g>
<!-- softmax_row_loop -->
<g id="node15" class="node">
<title>softmax_row_loop</title>
<path fill="#cffafe" stroke="#cbd5e1" d="M681.5,-522C681.5,-522 576.5,-522 576.5,-522 570.5,-522 564.5,-516 564.5,-510 564.5,-510 564.5,-496 564.5,-496 564.5,-490 570.5,-484 576.5,-484 576.5,-484 681.5,-484 681.5,-484 687.5,-484 693.5,-490 693.5,-496 693.5,-496 693.5,-510 693.5,-510 693.5,-516 687.5,-522 681.5,-522"/>
<text text-anchor="middle" x="629" y="-506.2" font-family="Helvetica,sans-Serif" font-size="11.00">Softmax Row Loop</text>
<text text-anchor="middle" x="629" y="-494.2" font-family="Helvetica,sans-Serif" font-size="11.00">repeat over qRows</text>
</g>
<!-- softmax_phase&#45;&gt;softmax_row_loop -->
<g id="edge15" class="edge">
<title>softmax_phase&#45;&gt;softmax_row_loop</title>
<path fill="none" stroke="#64748b" d="M674,-571.97C674,-571.97 674,-530.21 674,-530.21"/>
<polygon fill="#64748b" stroke="#64748b" points="676.8,-530.21 674,-522.21 671.2,-530.21 676.8,-530.21"/>
</g>
<!-- softmax_row_init -->
<g id="node16" class="node">
<title>softmax_row_init</title>
<path fill="#cffafe" stroke="#cbd5e1" d="M159.5,-428C159.5,-428 54.5,-428 54.5,-428 48.5,-428 42.5,-422 42.5,-416 42.5,-416 42.5,-402 42.5,-402 42.5,-396 48.5,-390 54.5,-390 54.5,-390 159.5,-390 159.5,-390 165.5,-390 171.5,-396 171.5,-402 171.5,-402 171.5,-416 171.5,-416 171.5,-422 165.5,-428 159.5,-428"/>
<text text-anchor="middle" x="107" y="-412.2" font-family="Helvetica,sans-Serif" font-size="11.00">Row Init</text>
<text text-anchor="middle" x="107" y="-400.2" font-family="Helvetica,sans-Serif" font-size="11.00">s_softmax_row_init</text>
</g>
<!-- softmax_row_loop&#45;&gt;softmax_row_init -->
<g id="edge16" class="edge">
<title>softmax_row_loop&#45;&gt;softmax_row_init</title>
<path fill="none" stroke="#64748b" d="M564.25,-509C435.52,-509 159.75,-509 159.75,-509 159.75,-509 159.75,-436.28 159.75,-436.28"/>
<polygon fill="#64748b" stroke="#64748b" points="162.55,-436.28 159.75,-428.28 156.95,-436.28 162.55,-436.28"/>
</g>
<!-- softmax_pass1 -->
<g id="node17" class="node">
<title>softmax_pass1</title>
<path fill="#cffafe" stroke="#cbd5e1" d="M468.5,-434C468.5,-434 215.5,-434 215.5,-434 209.5,-434 203.5,-428 203.5,-422 203.5,-422 203.5,-396 203.5,-396 203.5,-390 209.5,-384 215.5,-384 215.5,-384 468.5,-384 468.5,-384 474.5,-384 480.5,-390 480.5,-396 480.5,-396 480.5,-422 480.5,-422 480.5,-428 474.5,-434 468.5,-434"/>
<text text-anchor="middle" x="342" y="-418.2" font-family="Helvetica,sans-Serif" font-size="11.00">Pass 1</text>
<text text-anchor="middle" x="342" y="-406.2" font-family="Helvetica,sans-Serif" font-size="11.00">s_softmax_p1_load &#45;&gt; s_softmax_p1_compute</text>
<text text-anchor="middle" x="342" y="-394.2" font-family="Helvetica,sans-Serif" font-size="11.00">scan row, compute running max + sum</text>
</g>
<!-- softmax_row_loop&#45;&gt;softmax_pass1 -->
<g id="edge17" class="edge">
<title>softmax_row_loop&#45;&gt;softmax_pass1</title>
<path fill="none" stroke="#64748b" d="M564.44,-496C506.66,-496 431,-496 431,-496 431,-496 431,-442.16 431,-442.16"/>
<polygon fill="#64748b" stroke="#64748b" points="433.8,-442.16 431,-434.16 428.2,-442.16 433.8,-442.16"/>
</g>
<!-- softmax_recip -->
<g id="node18" class="node">
<title>softmax_recip</title>
<path fill="#cffafe" stroke="#cbd5e1" d="M733.5,-428C733.5,-428 524.5,-428 524.5,-428 518.5,-428 512.5,-422 512.5,-416 512.5,-416 512.5,-402 512.5,-402 512.5,-396 518.5,-390 524.5,-390 524.5,-390 733.5,-390 733.5,-390 739.5,-390 745.5,-396 745.5,-402 745.5,-402 745.5,-416 745.5,-416 745.5,-422 739.5,-428 733.5,-428"/>
<text text-anchor="middle" x="629" y="-412.2" font-family="Helvetica,sans-Serif" font-size="11.00">Reciprocal Estimate</text>
<text text-anchor="middle" x="629" y="-400.2" font-family="Helvetica,sans-Serif" font-size="11.00">softInvSum from LUT&#45;based reciprocal</text>
</g>
<!-- softmax_row_loop&#45;&gt;softmax_recip -->
<g id="edge18" class="edge">
<title>softmax_row_loop&#45;&gt;softmax_recip</title>
<path fill="none" stroke="#64748b" d="M629,-483.98C629,-483.98 629,-436.32 629,-436.32"/>
<polygon fill="#64748b" stroke="#64748b" points="631.8,-436.32 629,-428.32 626.2,-436.32 631.8,-436.32"/>
</g>
<!-- softmax_pass2 -->
<g id="node19" class="node">
<title>softmax_pass2</title>
<path fill="#cffafe" stroke="#cbd5e1" d="M1042.5,-434C1042.5,-434 789.5,-434 789.5,-434 783.5,-434 777.5,-428 777.5,-422 777.5,-422 777.5,-396 777.5,-396 777.5,-390 783.5,-384 789.5,-384 789.5,-384 1042.5,-384 1042.5,-384 1048.5,-384 1054.5,-390 1054.5,-396 1054.5,-396 1054.5,-422 1054.5,-422 1054.5,-428 1048.5,-434 1042.5,-434"/>
<text text-anchor="middle" x="916" y="-418.2" font-family="Helvetica,sans-Serif" font-size="11.00">Pass 2</text>
<text text-anchor="middle" x="916" y="-406.2" font-family="Helvetica,sans-Serif" font-size="11.00">s_softmax_p2_load &#45;&gt; s_softmax_p2_compute</text>
<text text-anchor="middle" x="916" y="-394.2" font-family="Helvetica,sans-Serif" font-size="11.00">normalize and write probs into aTileBuf</text>
</g>
<!-- softmax_row_loop&#45;&gt;softmax_pass2 -->
<g id="edge19" class="edge">
<title>softmax_row_loop&#45;&gt;softmax_pass2</title>
<path fill="none" stroke="#64748b" d="M693.77,-503C755.23,-503 838.25,-503 838.25,-503 838.25,-503 838.25,-442.19 838.25,-442.19"/>
<polygon fill="#64748b" stroke="#64748b" points="841.05,-442.19 838.25,-434.19 835.45,-442.19 841.05,-442.19"/>
</g>
<!-- pv_phase -->
<g id="node20" class="node">
<title>pv_phase</title>
<path fill="#dcfce7" stroke="#cbd5e1" d="M942,-334C942,-334 890,-334 890,-334 884,-334 878,-328 878,-322 878,-322 878,-310 878,-310 878,-304 884,-298 890,-298 890,-298 942,-298 942,-298 948,-298 954,-304 954,-310 954,-310 954,-322 954,-322 954,-328 948,-334 942,-334"/>
<text text-anchor="middle" x="916" y="-313.2" font-family="Helvetica,sans-Serif" font-size="11.00">PV Phase</text>
</g>
<!-- softmax_pass2&#45;&gt;pv_phase -->
<g id="edge20" class="edge">
<title>softmax_pass2&#45;&gt;pv_phase</title>
<path fill="none" stroke="#64748b" d="M916,-383.59C916,-383.59 916,-342.01 916,-342.01"/>
<polygon fill="#64748b" stroke="#64748b" points="918.8,-342.01 916,-334.01 913.2,-342.01 918.8,-342.01"/>
</g>
<!-- pv_setup -->
<g id="node21" class="node">
<title>pv_setup</title>
<path fill="#dcfce7" stroke="#cbd5e1" d="M743.5,-248C743.5,-248 570.5,-248 570.5,-248 564.5,-248 558.5,-242 558.5,-236 558.5,-236 558.5,-198 558.5,-198 558.5,-192 564.5,-186 570.5,-186 570.5,-186 743.5,-186 743.5,-186 749.5,-186 755.5,-192 755.5,-198 755.5,-198 755.5,-236 755.5,-236 755.5,-242 749.5,-248 743.5,-248"/>
<text text-anchor="middle" x="657" y="-232.2" font-family="Helvetica,sans-Serif" font-size="11.00">Setup + Fill V</text>
<text text-anchor="middle" x="657" y="-220.2" font-family="Helvetica,sans-Serif" font-size="11.00">s_pv_setup</text>
<text text-anchor="middle" x="657" y="-208.2" font-family="Helvetica,sans-Serif" font-size="11.00">then s_req_fill_b &#45;&gt; s_wait_fill_b</text>
<text text-anchor="middle" x="657" y="-196.2" font-family="Helvetica,sans-Serif" font-size="11.00">reads V into bTileBuf</text>
</g>
<!-- pv_phase&#45;&gt;pv_setup -->
<g id="edge21" class="edge">
<title>pv_phase&#45;&gt;pv_setup</title>
<path fill="none" stroke="#64748b" d="M877.61,-316C828.72,-316 750.5,-316 750.5,-316 750.5,-316 750.5,-256.05 750.5,-256.05"/>
<polygon fill="#64748b" stroke="#64748b" points="753.3,-256.05 750.5,-248.05 747.7,-256.05 753.3,-256.05"/>
</g>
<!-- pv_chunk_loop -->
<g id="node22" class="node">
<title>pv_chunk_loop</title>
<path fill="#dcfce7" stroke="#cbd5e1" d="M1036.5,-248C1036.5,-248 799.5,-248 799.5,-248 793.5,-248 787.5,-242 787.5,-236 787.5,-236 787.5,-198 787.5,-198 787.5,-192 793.5,-186 799.5,-186 799.5,-186 1036.5,-186 1036.5,-186 1042.5,-186 1048.5,-192 1048.5,-198 1048.5,-198 1048.5,-236 1048.5,-236 1048.5,-242 1042.5,-248 1036.5,-248"/>
<text text-anchor="middle" x="918" y="-232.2" font-family="Helvetica,sans-Serif" font-size="11.00">PV Chunk Loop</text>
<text text-anchor="middle" x="918" y="-220.2" font-family="Helvetica,sans-Serif" font-size="11.00">s_pv_prep_chunk &#45;&gt; s_pv_load_weights</text>
<text text-anchor="middle" x="918" y="-208.2" font-family="Helvetica,sans-Serif" font-size="11.00">&#45;&gt; s_pv_feed_rows &#45;&gt; s_pv_wait_chunk_out</text>
<text text-anchor="middle" x="918" y="-196.2" font-family="Helvetica,sans-Serif" font-size="11.00">repeat over kvRows in chunks of nRows</text>
</g>
<!-- pv_phase&#45;&gt;pv_chunk_loop -->
<g id="edge22" class="edge">
<title>pv_phase&#45;&gt;pv_chunk_loop</title>
<path fill="none" stroke="#64748b" d="M916,-297.84C916,-297.84 916,-256.27 916,-256.27"/>
<polygon fill="#64748b" stroke="#64748b" points="918.8,-256.27 916,-248.27 913.2,-256.27 918.8,-256.27"/>
</g>
<!-- writeback -->
<g id="node23" class="node">
<title>writeback</title>
<path fill="#e2e8f0" stroke="#cbd5e1" d="M978.5,-136C978.5,-136 857.5,-136 857.5,-136 851.5,-136 845.5,-130 845.5,-124 845.5,-124 845.5,-112 845.5,-112 845.5,-106 851.5,-100 857.5,-100 857.5,-100 978.5,-100 978.5,-100 984.5,-100 990.5,-106 990.5,-112 990.5,-112 990.5,-124 990.5,-124 990.5,-130 984.5,-136 978.5,-136"/>
<text text-anchor="middle" x="918" y="-115.2" font-family="Helvetica,sans-Serif" font-size="11.00">Quantize + Writeback</text>
</g>
<!-- pv_chunk_loop&#45;&gt;writeback -->
<g id="edge23" class="edge">
<title>pv_chunk_loop&#45;&gt;writeback</title>
<path fill="none" stroke="#64748b" d="M918,-185.95C918,-185.95 918,-144.26 918,-144.26"/>
<polygon fill="#64748b" stroke="#64748b" points="920.8,-144.26 918,-136.26 915.2,-144.26 920.8,-144.26"/>
</g>
<!-- quantize -->
<g id="node24" class="node">
<title>quantize</title>
<path fill="#e2e8f0" stroke="#cbd5e1" d="M776,-50C776,-50 598,-50 598,-50 592,-50 586,-44 586,-38 586,-38 586,-12 586,-12 586,-6 592,0 598,0 598,0 776,0 776,0 782,0 788,-6 788,-12 788,-12 788,-38 788,-38 788,-44 782,-50 776,-50"/>
<text text-anchor="middle" x="687" y="-34.2" font-family="Helvetica,sans-Serif" font-size="11.00">Pack Outputs</text>
<text text-anchor="middle" x="687" y="-22.2" font-family="Helvetica,sans-Serif" font-size="11.00">s_quantize_out</text>
<text text-anchor="middle" x="687" y="-10.2" font-family="Helvetica,sans-Serif" font-size="11.00">pack accumTile into BF16 words</text>
</g>
<!-- writeback&#45;&gt;quantize -->
<g id="edge24" class="edge">
<title>writeback&#45;&gt;quantize</title>
<path fill="none" stroke="#64748b" d="M845.49,-118C813.27,-118 782.5,-118 782.5,-118 782.5,-118 782.5,-58.41 782.5,-58.41"/>
<polygon fill="#64748b" stroke="#64748b" points="785.3,-58.41 782.5,-50.41 779.7,-58.41 785.3,-58.41"/>
</g>
<!-- put_loop -->
<g id="node25" class="node">
<title>put_loop</title>
<path fill="#e2e8f0" stroke="#cbd5e1" d="M1004,-50C1004,-50 832,-50 832,-50 826,-50 820,-44 820,-38 820,-38 820,-12 820,-12 820,-6 826,0 832,0 832,0 1004,0 1004,0 1010,0 1016,-6 1016,-12 1016,-12 1016,-38 1016,-38 1016,-44 1010,-50 1004,-50"/>
<text text-anchor="middle" x="918" y="-34.2" font-family="Helvetica,sans-Serif" font-size="11.00">TL Put Loop</text>
<text text-anchor="middle" x="918" y="-22.2" font-family="Helvetica,sans-Serif" font-size="11.00">s_req_put &#45;&gt; s_wait_put</text>
<text text-anchor="middle" x="918" y="-10.2" font-family="Helvetica,sans-Serif" font-size="11.00">write packed words to outBase</text>
</g>
<!-- writeback&#45;&gt;put_loop -->
<g id="edge25" class="edge">
<title>writeback&#45;&gt;put_loop</title>
<path fill="none" stroke="#64748b" d="M918,-99.63C918,-99.63 918,-58.03 918,-58.03"/>
<polygon fill="#64748b" stroke="#64748b" points="920.8,-58.03 918,-50.03 915.2,-58.03 920.8,-58.03"/>
</g>
<!-- writeback&#45;&gt;resp -->
<g id="edge26" class="edge">
<title>writeback&#45;&gt;resp</title>
<path fill="none" stroke="#64748b" d="M990.53,-118C1032.06,-118 1076,-118 1076,-118 1076,-118 1076,-52.27 1076,-52.27"/>
<polygon fill="#64748b" stroke="#64748b" points="1078.8,-52.27 1076,-44.27 1073.2,-52.27 1078.8,-52.27"/>
</g>
</g>
</svg>
