<?xml version="1.0" encoding="UTF-8" standalone="no"?>
<!DOCTYPE svg PUBLIC "-//W3C//DTD SVG 1.1//EN"
 "http://www.w3.org/Graphics/SVG/1.1/DTD/svg11.dtd">
<!-- Generated by graphviz version 11.0.0 (20240519.1550)
 -->
<!-- Title: MatmulAccel4x4WSTopDownSimple Pages: 1 -->
<svg width="890pt" height="1307pt"
 viewBox="0.00 0.00 889.91 1306.70" xmlns="http://www.w3.org/2000/svg" xmlns:xlink="http://www.w3.org/1999/xlink">
<g id="graph0" class="graph" transform="scale(1 1) rotate(0) translate(18 1288.7)">
<title>MatmulAccel4x4WSTopDownSimple</title>
<polygon fill="white" stroke="none" points="-18,18 -18,-1288.7 871.91,-1288.7 871.91,18 -18,18"/>
<text text-anchor="middle" x="245.38" y="-1249.6" font-family="Helvetica,sans-Serif" font-size="18.00">MatmulAccel4x4WS simple flow</text>
<text text-anchor="middle" x="245.38" y="-1227.85" font-family="Helvetica,sans-Serif" font-size="18.00">SystolicArrayWSRoCC 4x4 weight&#45;stationary matmul</text>
<!-- root -->
<g id="node1" class="node">
<title>root</title>
<ellipse fill="#e2e8f0" stroke="#cbd5e1" cx="347.39" cy="-1189.92" rx="101.14" ry="29.27"/>
<text text-anchor="middle" x="347.39" y="-1192.97" font-family="Helvetica,sans-Serif" font-size="11.00">MatmulAccel4x4WS</text>
<text text-anchor="middle" x="347.39" y="-1179.47" font-family="Helvetica,sans-Serif" font-size="11.00">SystolicArrayWSRoCC</text>
</g>
<!-- config -->
<g id="node2" class="node">
<title>config</title>
<path fill="#fef3c7" stroke="#cbd5e1" d="M241.41,-1110.65C241.41,-1110.65 137.38,-1110.65 137.38,-1110.65 131.38,-1110.65 125.37,-1104.65 125.37,-1098.65 125.37,-1098.65 125.37,-1040.75 125.37,-1040.75 125.37,-1034.75 131.38,-1028.75 137.38,-1028.75 137.38,-1028.75 241.41,-1028.75 241.41,-1028.75 247.41,-1028.75 253.41,-1034.75 253.41,-1040.75 253.41,-1040.75 253.41,-1098.65 253.41,-1098.65 253.41,-1104.65 247.41,-1110.65 241.41,-1110.65"/>
<text text-anchor="middle" x="189.39" y="-1093" font-family="Helvetica,sans-Serif" font-size="11.00">Config</text>
<text text-anchor="middle" x="189.39" y="-1079.5" font-family="Helvetica,sans-Serif" font-size="11.00">precision=16</text>
<text text-anchor="middle" x="189.39" y="-1066" font-family="Helvetica,sans-Serif" font-size="11.00">nRows=4, nCols=4</text>
<text text-anchor="middle" x="189.39" y="-1052.5" font-family="Helvetica,sans-Serif" font-size="11.00">maxK=256</text>
<text text-anchor="middle" x="189.39" y="-1039" font-family="Helvetica,sans-Serif" font-size="11.00">opcode custom1</text>
</g>
<!-- root&#45;&gt;config -->
<g id="edge1" class="edge">
<title>root&#45;&gt;config</title>
<path fill="none" stroke="#64748b" d="M249.83,-1181.66C249.83,-1181.66 249.83,-1120.44 249.83,-1120.44"/>
<polygon fill="#64748b" stroke="#64748b" points="252.63,-1120.44 249.83,-1112.44 247.03,-1120.44 252.63,-1120.44"/>
</g>
<!-- command_decode -->
<g id="node3" class="node">
<title>command_decode</title>
<path fill="#fef3c7" stroke="#cbd5e1" d="M397.16,-1087.7C397.16,-1087.7 297.62,-1087.7 297.62,-1087.7 291.62,-1087.7 285.62,-1081.7 285.62,-1075.7 285.62,-1075.7 285.62,-1063.7 285.62,-1063.7 285.62,-1057.7 291.62,-1051.7 297.62,-1051.7 297.62,-1051.7 397.16,-1051.7 397.16,-1051.7 403.16,-1051.7 409.16,-1057.7 409.16,-1063.7 409.16,-1063.7 409.16,-1075.7 409.16,-1075.7 409.16,-1081.7 403.16,-1087.7 397.16,-1087.7"/>
<text text-anchor="middle" x="347.39" y="-1066" font-family="Helvetica,sans-Serif" font-size="11.00">Command Decode</text>
</g>
<!-- root&#45;&gt;command_decode -->
<g id="edge2" class="edge">
<title>root&#45;&gt;command_decode</title>
<path fill="none" stroke="#64748b" d="M347.39,-1160.2C347.39,-1160.2 347.39,-1097.39 347.39,-1097.39"/>
<polygon fill="#64748b" stroke="#64748b" points="350.2,-1097.39 347.4,-1089.39 344.6,-1097.39 350.2,-1097.39"/>
</g>
<!-- note -->
<g id="node17" class="node">
<title>note</title>
<polygon fill="#fff7ed" stroke="#fdba74" points="847.91,-1090.4 440.88,-1090.4 440.88,-1049 853.91,-1049 853.91,-1084.4 847.91,-1090.4"/>
<polyline fill="none" stroke="#fdba74" points="847.91,-1090.4 847.91,-1084.4"/>
<polyline fill="none" stroke="#fdba74" points="853.91,-1084.4 847.91,-1084.4"/>
<text text-anchor="middle" x="647.39" y="-1072.75" font-family="Helvetica,sans-Serif" font-size="11.00">Software can preload B once, then call run_preloaded for many A tiles.</text>
<text text-anchor="middle" x="647.39" y="-1059.25" font-family="Helvetica,sans-Serif" font-size="11.00">This is the tile&#45;level weight&#45;stationary reuse path.</text>
</g>
<!-- root&#45;&gt;note -->
<g id="edge3" class="edge">
<title>root&#45;&gt;note</title>
<path fill="none" stroke="#d97706" stroke-dasharray="5,2" d="M444.71,-1181.66C444.71,-1181.66 444.71,-1100.17 444.71,-1100.17"/>
<polygon fill="#d97706" stroke="#d97706" points="447.51,-1100.17 444.71,-1092.17 441.91,-1100.17 447.51,-1100.17"/>
</g>
<!-- funct0 -->
<g id="node4" class="node">
<title>funct0</title>
<path fill="#fef3c7" stroke="#cbd5e1" d="M98.79,-846.85C98.79,-846.85 12,-846.85 12,-846.85 6,-846.85 0,-840.85 0,-834.85 0,-834.85 0,-790.45 0,-790.45 0,-784.45 6,-778.45 12,-778.45 12,-778.45 98.79,-778.45 98.79,-778.45 104.79,-778.45 110.79,-784.45 110.79,-790.45 110.79,-790.45 110.79,-834.85 110.79,-834.85 110.79,-840.85 104.79,-846.85 98.79,-846.85"/>
<text text-anchor="middle" x="55.39" y="-829.2" font-family="Helvetica,sans-Serif" font-size="11.00">funct 0: CONFIG</text>
<text text-anchor="middle" x="55.39" y="-815.7" font-family="Helvetica,sans-Serif" font-size="11.00">rs1 = A base</text>
<text text-anchor="middle" x="55.39" y="-802.2" font-family="Helvetica,sans-Serif" font-size="11.00">rs2 = B base</text>
<text text-anchor="middle" x="55.39" y="-788.7" font-family="Helvetica,sans-Serif" font-size="11.00">set configured</text>
</g>
<!-- command_decode&#45;&gt;funct0 -->
<g id="edge4" class="edge">
<title>command_decode&#45;&gt;funct0</title>
<path fill="none" stroke="#64748b" d="M301.26,-1051.47C301.26,-1031.72 301.26,-1003 301.26,-1003 301.26,-1003 55.39,-1003 55.39,-1003 55.39,-1003 55.39,-856.63 55.39,-856.63"/>
<polygon fill="#64748b" stroke="#64748b" points="58.2,-856.63 55.4,-848.63 52.6,-856.63 58.2,-856.63"/>
</g>
<!-- funct1 -->
<g id="node5" class="node">
<title>funct1</title>
<path fill="#dbeafe" stroke="#cbd5e1" d="M490.29,-978.75C490.29,-978.75 376.5,-978.75 376.5,-978.75 370.5,-978.75 364.5,-972.75 364.5,-966.75 364.5,-966.75 364.5,-908.85 364.5,-908.85 364.5,-902.85 370.5,-896.85 376.5,-896.85 376.5,-896.85 490.29,-896.85 490.29,-896.85 496.29,-896.85 502.29,-902.85 502.29,-908.85 502.29,-908.85 502.29,-966.75 502.29,-966.75 502.29,-972.75 496.29,-978.75 490.29,-978.75"/>
<text text-anchor="middle" x="433.39" y="-961.1" font-family="Helvetica,sans-Serif" font-size="11.00">funct 1: RUN_FULL</text>
<text text-anchor="middle" x="433.39" y="-947.6" font-family="Helvetica,sans-Serif" font-size="11.00">rs1 = C base</text>
<text text-anchor="middle" x="433.39" y="-934.1" font-family="Helvetica,sans-Serif" font-size="11.00">rs2 = K</text>
<text text-anchor="middle" x="433.39" y="-920.6" font-family="Helvetica,sans-Serif" font-size="11.00">load/reuse B, load A,</text>
<text text-anchor="middle" x="433.39" y="-907.1" font-family="Helvetica,sans-Serif" font-size="11.00">compute and write C</text>
</g>
<!-- command_decode&#45;&gt;funct1 -->
<g id="edge5" class="edge">
<title>command_decode&#45;&gt;funct1</title>
<path fill="none" stroke="#64748b" d="M386.83,-1051.36C386.83,-1051.36 386.83,-988.55 386.83,-988.55"/>
<polygon fill="#64748b" stroke="#64748b" points="389.63,-988.55 386.83,-980.55 384.03,-988.55 389.63,-988.55"/>
</g>
<!-- funct3 -->
<g id="node6" class="node">
<title>funct3</title>
<path fill="#dbeafe" stroke="#cbd5e1" d="M320.54,-972C320.54,-972 202.25,-972 202.25,-972 196.25,-972 190.25,-966 190.25,-960 190.25,-960 190.25,-915.6 190.25,-915.6 190.25,-909.6 196.25,-903.6 202.25,-903.6 202.25,-903.6 320.54,-903.6 320.54,-903.6 326.54,-903.6 332.54,-909.6 332.54,-915.6 332.54,-915.6 332.54,-960 332.54,-960 332.54,-966 326.54,-972 320.54,-972"/>
<text text-anchor="middle" x="261.39" y="-954.35" font-family="Helvetica,sans-Serif" font-size="11.00">funct 3: PRELOAD_B</text>
<text text-anchor="middle" x="261.39" y="-940.85" font-family="Helvetica,sans-Serif" font-size="11.00">rs1 = B base</text>
<text text-anchor="middle" x="261.39" y="-927.35" font-family="Helvetica,sans-Serif" font-size="11.00">rs2 = K</text>
<text text-anchor="middle" x="261.39" y="-913.85" font-family="Helvetica,sans-Serif" font-size="11.00">fill and pin bCacheBuf</text>
</g>
<!-- command_decode&#45;&gt;funct3 -->
<g id="edge6" class="edge">
<title>command_decode&#45;&gt;funct3</title>
<path fill="none" stroke="#64748b" d="M316.9,-1051.36C316.9,-1051.36 316.9,-981.79 316.9,-981.79"/>
<polygon fill="#64748b" stroke="#64748b" points="319.7,-981.79 316.9,-973.79 314.1,-981.79 319.7,-981.79"/>
</g>
<!-- funct6 -->
<g id="node7" class="node">
<title>funct6</title>
<path fill="#dbeafe" stroke="#cbd5e1" d="M634.41,-846.85C634.41,-846.85 494.38,-846.85 494.38,-846.85 488.38,-846.85 482.38,-840.85 482.38,-834.85 482.38,-834.85 482.38,-790.45 482.38,-790.45 482.38,-784.45 488.38,-778.45 494.38,-778.45 494.38,-778.45 634.41,-778.45 634.41,-778.45 640.41,-778.45 646.41,-784.45 646.41,-790.45 646.41,-790.45 646.41,-834.85 646.41,-834.85 646.41,-840.85 640.41,-846.85 634.41,-846.85"/>
<text text-anchor="middle" x="564.39" y="-829.2" font-family="Helvetica,sans-Serif" font-size="11.00">funct 6: RUN_PRELOADED</text>
<text text-anchor="middle" x="564.39" y="-815.7" font-family="Helvetica,sans-Serif" font-size="11.00">rs1 = A base</text>
<text text-anchor="middle" x="564.39" y="-802.2" font-family="Helvetica,sans-Serif" font-size="11.00">rs2 = C base</text>
<text text-anchor="middle" x="564.39" y="-788.7" font-family="Helvetica,sans-Serif" font-size="11.00">reuse pinned B</text>
</g>
<!-- command_decode&#45;&gt;funct6 -->
<g id="edge7" class="edge">
<title>command_decode&#45;&gt;funct6</title>
<path fill="none" stroke="#64748b" d="M348.52,-1051.36C348.52,-1002.17 348.52,-871 348.52,-871 348.52,-871 492.33,-871 492.33,-871 492.33,-871 492.33,-856.78 492.33,-856.78"/>
<polygon fill="#64748b" stroke="#64748b" points="495.13,-856.78 492.33,-848.78 489.53,-856.78 495.13,-856.78"/>
</g>
<!-- resp -->
<g id="node16" class="node">
<title>resp</title>
<ellipse fill="#e2e8f0" stroke="#cbd5e1" cx="135.39" cy="-29.27" rx="77.28" ry="29.27"/>
<text text-anchor="middle" x="135.39" y="-32.32" font-family="Helvetica,sans-Serif" font-size="11.00">Respond</text>
<text text-anchor="middle" x="135.39" y="-18.82" font-family="Helvetica,sans-Serif" font-size="11.00">s_resp &#45;&gt; s_idle</text>
</g>
<!-- funct0&#45;&gt;resp -->
<g id="edge8" class="edge">
<title>funct0&#45;&gt;resp</title>
<path fill="none" stroke="#64748b" d="M84.45,-777.98C84.45,-777.98 84.45,-60.98 84.45,-60.98"/>
<polygon fill="#64748b" stroke="#64748b" points="87.25,-60.98 84.45,-52.98 81.65,-60.98 87.25,-60.98"/>
</g>
<!-- b_cache -->
<g id="node8" class="node">
<title>b_cache</title>
<path fill="#dbeafe" stroke="#cbd5e1" d="M372.41,-846.85C372.41,-846.85 154.38,-846.85 154.38,-846.85 148.38,-846.85 142.38,-840.85 142.38,-834.85 142.38,-834.85 142.38,-790.45 142.38,-790.45 142.38,-784.45 148.38,-778.45 154.38,-778.45 154.38,-778.45 372.41,-778.45 372.41,-778.45 378.41,-778.45 384.41,-784.45 384.41,-790.45 384.41,-790.45 384.41,-834.85 384.41,-834.85 384.41,-840.85 378.41,-846.85 372.41,-846.85"/>
<text text-anchor="middle" x="263.39" y="-829.2" font-family="Helvetica,sans-Serif" font-size="11.00">B Weight Cache</text>
<text text-anchor="middle" x="263.39" y="-815.7" font-family="Helvetica,sans-Serif" font-size="11.00">s_req_fill_b_cache &#45;&gt; s_wait_fill_b_cache</text>
<text text-anchor="middle" x="263.39" y="-802.2" font-family="Helvetica,sans-Serif" font-size="11.00">read packed B stream into bCacheBuf</text>
<text text-anchor="middle" x="263.39" y="-788.7" font-family="Helvetica,sans-Serif" font-size="11.00">can be pinned and reused</text>
</g>
<!-- funct1&#45;&gt;b_cache -->
<g id="edge9" class="edge">
<title>funct1&#45;&gt;b_cache</title>
<path fill="none" stroke="#64748b" d="M374.46,-896.47C374.46,-896.47 374.46,-856.75 374.46,-856.75"/>
<polygon fill="#64748b" stroke="#64748b" points="377.26,-856.75 374.46,-848.75 371.66,-856.75 377.26,-856.75"/>
<text text-anchor="middle" x="339.21" y="-879.86" font-family="Helvetica,sans-Serif" font-size="10.00">B not reusable</text>
</g>
<!-- chunk_loop -->
<g id="node9" class="node">
<title>chunk_loop</title>
<path fill="#dbeafe" stroke="#cbd5e1" d="M522.54,-728.45C522.54,-728.45 344.25,-728.45 344.25,-728.45 338.25,-728.45 332.25,-722.45 332.25,-716.45 332.25,-716.45 332.25,-685.55 332.25,-685.55 332.25,-679.55 338.25,-673.55 344.25,-673.55 344.25,-673.55 522.54,-673.55 522.54,-673.55 528.54,-673.55 534.54,-679.55 534.54,-685.55 534.54,-685.55 534.54,-716.45 534.54,-716.45 534.54,-722.45 528.54,-728.45 522.54,-728.45"/>
<text text-anchor="middle" x="433.39" y="-710.8" font-family="Helvetica,sans-Serif" font-size="11.00">K Chunk Loop</text>
<text text-anchor="middle" x="433.39" y="-697.3" font-family="Helvetica,sans-Serif" font-size="11.00">s_prep_chunk</text>
<text text-anchor="middle" x="433.39" y="-683.8" font-family="Helvetica,sans-Serif" font-size="11.00">process K in chunks of nRows=4</text>
</g>
<!-- funct1&#45;&gt;chunk_loop -->
<g id="edge10" class="edge">
<title>funct1&#45;&gt;chunk_loop</title>
<path fill="none" stroke="#64748b" d="M433.39,-896.55C433.39,-896.55 433.39,-738.34 433.39,-738.34"/>
<polygon fill="#64748b" stroke="#64748b" points="436.2,-738.34 433.4,-730.34 430.6,-738.34 436.2,-738.34"/>
<text text-anchor="middle" x="446.33" y="-807.94" font-family="Helvetica,sans-Serif" font-size="10.00">B reusable</text>
<text text-anchor="middle" x="446.33" y="-795.19" font-family="Helvetica,sans-Serif" font-size="10.00">or K=0</text>
</g>
<!-- funct3&#45;&gt;b_cache -->
<g id="edge11" class="edge">
<title>funct3&#45;&gt;b_cache</title>
<path fill="none" stroke="#64748b" d="M261.39,-903.27C261.39,-903.27 261.39,-856.58 261.39,-856.58"/>
<polygon fill="#64748b" stroke="#64748b" points="264.2,-856.58 261.4,-848.58 258.6,-856.58 264.2,-856.58"/>
</g>
<!-- funct6&#45;&gt;chunk_loop -->
<g id="edge12" class="edge">
<title>funct6&#45;&gt;chunk_loop</title>
<path fill="none" stroke="#64748b" d="M508.46,-778.24C508.46,-778.24 508.46,-738.27 508.46,-738.27"/>
<polygon fill="#64748b" stroke="#64748b" points="511.26,-738.27 508.46,-730.27 505.66,-738.27 511.26,-738.27"/>
<text text-anchor="middle" x="473.58" y="-761.5" font-family="Helvetica,sans-Serif" font-size="10.00">B pinned valid</text>
</g>
<!-- b_cache&#45;&gt;chunk_loop -->
<g id="edge13" class="edge">
<title>b_cache&#45;&gt;chunk_loop</title>
<path fill="none" stroke="#64748b" d="M358.33,-778.24C358.33,-778.24 358.33,-738.27 358.33,-738.27"/>
<polygon fill="#64748b" stroke="#64748b" points="361.13,-738.27 358.33,-730.27 355.53,-738.27 361.13,-738.27"/>
<text text-anchor="middle" x="350.46" y="-761.5" font-family="Helvetica,sans-Serif" font-size="10.00">run</text>
</g>
<!-- b_cache&#45;&gt;resp -->
<g id="edge14" class="edge">
<title>b_cache&#45;&gt;resp</title>
<path fill="none" stroke="#64748b" d="M163.5,-777.98C163.5,-777.98 163.5,-66.32 163.5,-66.32"/>
<polygon fill="#64748b" stroke="#64748b" points="166.3,-66.32 163.5,-58.32 160.7,-66.32 166.3,-66.32"/>
<text text-anchor="middle" x="133.12" y="-425.4" font-family="Helvetica,sans-Serif" font-size="10.00">preload only</text>
</g>
<!-- a_fill -->
<g id="node10" class="node">
<title>a_fill</title>
<path fill="#dbeafe" stroke="#cbd5e1" d="M562.04,-623.55C562.04,-623.55 296.75,-623.55 296.75,-623.55 290.75,-623.55 284.75,-617.55 284.75,-611.55 284.75,-611.55 284.75,-580.65 284.75,-580.65 284.75,-574.65 290.75,-568.65 296.75,-568.65 296.75,-568.65 562.04,-568.65 562.04,-568.65 568.04,-568.65 574.04,-574.65 574.04,-580.65 574.04,-580.65 574.04,-611.55 574.04,-611.55 574.04,-617.55 568.04,-623.55 562.04,-623.55"/>
<text text-anchor="middle" x="429.39" y="-605.9" font-family="Helvetica,sans-Serif" font-size="11.00">Fill A Chunk</text>
<text text-anchor="middle" x="429.39" y="-592.4" font-family="Helvetica,sans-Serif" font-size="11.00">s_req_fill_a &#45;&gt; s_wait_fill_a</text>
<text text-anchor="middle" x="429.39" y="-578.9" font-family="Helvetica,sans-Serif" font-size="11.00">read packed A words into ping&#45;pong aChunkBufs</text>
</g>
<!-- chunk_loop&#45;&gt;a_fill -->
<g id="edge15" class="edge">
<title>chunk_loop&#45;&gt;a_fill</title>
<path fill="none" stroke="#64748b" d="M433.39,-673.16C433.39,-673.16 433.39,-633.21 433.39,-633.21"/>
<polygon fill="#64748b" stroke="#64748b" points="436.2,-633.21 433.4,-625.21 430.6,-633.21 436.2,-633.21"/>
</g>
<!-- compute -->
<g id="node12" class="node">
<title>compute</title>
<path fill="#dcfce7" stroke="#cbd5e1" d="M566.41,-518.65C566.41,-518.65 282.38,-518.65 282.38,-518.65 276.38,-518.65 270.38,-512.65 270.38,-506.65 270.38,-506.65 270.38,-448.75 270.38,-448.75 270.38,-442.75 276.38,-436.75 282.38,-436.75 282.38,-436.75 566.41,-436.75 566.41,-436.75 572.41,-436.75 578.41,-442.75 578.41,-448.75 578.41,-448.75 578.41,-506.65 578.41,-506.65 578.41,-512.65 572.41,-518.65 566.41,-518.65"/>
<text text-anchor="middle" x="424.39" y="-501" font-family="Helvetica,sans-Serif" font-size="11.00">Weight&#45;Stationary Compute</text>
<text text-anchor="middle" x="424.39" y="-487.5" font-family="Helvetica,sans-Serif" font-size="11.00">s_load_weights &#45;&gt; s_feed_rows &#45;&gt; s_wait_chunk_out</text>
<text text-anchor="middle" x="424.39" y="-474" font-family="Helvetica,sans-Serif" font-size="11.00">load B tile into core</text>
<text text-anchor="middle" x="424.39" y="-460.5" font-family="Helvetica,sans-Serif" font-size="11.00">feed A rows</text>
<text text-anchor="middle" x="424.39" y="-447" font-family="Helvetica,sans-Serif" font-size="11.00">capture partial outputs</text>
</g>
<!-- a_fill&#45;&gt;compute -->
<g id="edge16" class="edge">
<title>a_fill&#45;&gt;compute</title>
<path fill="none" stroke="#64748b" d="M429.39,-568.34C429.39,-568.34 429.39,-528.26 429.39,-528.26"/>
<polygon fill="#64748b" stroke="#64748b" points="432.2,-528.26 429.4,-520.26 426.6,-528.26 432.2,-528.26"/>
</g>
<!-- prefetch -->
<g id="node11" class="node">
<title>prefetch</title>
<path fill="#dbeafe" stroke="#cbd5e1" d="M464.16,-386.75C464.16,-386.75 196.62,-386.75 196.62,-386.75 190.62,-386.75 184.62,-380.75 184.62,-374.75 184.62,-374.75 184.62,-343.85 184.62,-343.85 184.62,-337.85 190.62,-331.85 196.62,-331.85 196.62,-331.85 464.16,-331.85 464.16,-331.85 470.16,-331.85 476.16,-337.85 476.16,-343.85 476.16,-343.85 476.16,-374.75 476.16,-374.75 476.16,-380.75 470.16,-386.75 464.16,-386.75"/>
<text text-anchor="middle" x="330.39" y="-369.1" font-family="Helvetica,sans-Serif" font-size="11.00">Optional A Prefetch</text>
<text text-anchor="middle" x="330.39" y="-355.6" font-family="Helvetica,sans-Serif" font-size="11.00">pf_req_fill_a &#45;&gt; pf_wait_fill_a</text>
<text text-anchor="middle" x="330.39" y="-342.1" font-family="Helvetica,sans-Serif" font-size="11.00">load next A chunk while current chunk computes</text>
</g>
<!-- compute&#45;&gt;prefetch -->
<g id="edge17" class="edge">
<title>compute&#45;&gt;prefetch</title>
<path fill="none" stroke="#64748b" stroke-dasharray="5,2" d="M373.27,-436.29C373.27,-436.29 373.27,-396.64 373.27,-396.64"/>
<polygon fill="#64748b" stroke="#64748b" points="376.07,-396.64 373.27,-388.64 370.47,-396.64 376.07,-396.64"/>
<text text-anchor="middle" x="348.89" y="-419.71" font-family="Helvetica,sans-Serif" font-size="10.00">if enabled</text>
</g>
<!-- accumulate -->
<g id="node13" class="node">
<title>accumulate</title>
<path fill="#dcfce7" stroke="#cbd5e1" d="M734.91,-386.75C734.91,-386.75 519.88,-386.75 519.88,-386.75 513.88,-386.75 507.88,-380.75 507.88,-374.75 507.88,-374.75 507.88,-343.85 507.88,-343.85 507.88,-337.85 513.88,-331.85 519.88,-331.85 519.88,-331.85 734.91,-331.85 734.91,-331.85 740.91,-331.85 746.91,-337.85 746.91,-343.85 746.91,-343.85 746.91,-374.75 746.91,-374.75 746.91,-380.75 740.91,-386.75 734.91,-386.75"/>
<text text-anchor="middle" x="627.39" y="-369.1" font-family="Helvetica,sans-Serif" font-size="11.00">Accumulate Output Tile</text>
<text text-anchor="middle" x="627.39" y="-355.6" font-family="Helvetica,sans-Serif" font-size="11.00">core outValid adds rows into accumTile</text>
<text text-anchor="middle" x="627.39" y="-342.1" font-family="Helvetica,sans-Serif" font-size="11.00">repeat until all K chunks complete</text>
</g>
<!-- compute&#45;&gt;accumulate -->
<g id="edge18" class="edge">
<title>compute&#45;&gt;accumulate</title>
<path fill="none" stroke="#64748b" d="M543.14,-436.29C543.14,-436.29 543.14,-396.64 543.14,-396.64"/>
<polygon fill="#64748b" stroke="#64748b" points="545.95,-396.64 543.15,-388.64 540.35,-396.64 545.95,-396.64"/>
</g>
<!-- accumulate&#45;&gt;chunk_loop -->
<g id="edge19" class="edge">
<title>accumulate&#45;&gt;chunk_loop</title>
<path fill="none" stroke="#64748b" d="M612.41,-387.18C612.41,-468.55 612.41,-700 612.41,-700 612.41,-700 544.45,-700 544.45,-700"/>
<polygon fill="#64748b" stroke="#64748b" points="544.45,-697.2 536.45,-700 544.45,-702.8 544.45,-697.2"/>
<text text-anchor="middle" x="594.79" y="-580.82" font-family="Helvetica,sans-Serif" font-size="10.00">more K</text>
</g>
<!-- quantize -->
<g id="node14" class="node">
<title>quantize</title>
<path fill="#e2e8f0" stroke="#cbd5e1" d="M623.29,-281.85C623.29,-281.85 461.5,-281.85 461.5,-281.85 455.5,-281.85 449.5,-275.85 449.5,-269.85 449.5,-269.85 449.5,-225.45 449.5,-225.45 449.5,-219.45 455.5,-213.45 461.5,-213.45 461.5,-213.45 623.29,-213.45 623.29,-213.45 629.29,-213.45 635.29,-219.45 635.29,-225.45 635.29,-225.45 635.29,-269.85 635.29,-269.85 635.29,-275.85 629.29,-281.85 623.29,-281.85"/>
<text text-anchor="middle" x="542.39" y="-264.2" font-family="Helvetica,sans-Serif" font-size="11.00">Optional BF16 Pack</text>
<text text-anchor="middle" x="542.39" y="-250.7" font-family="Helvetica,sans-Serif" font-size="11.00">s_quantize_out</text>
<text text-anchor="middle" x="542.39" y="-237.2" font-family="Helvetica,sans-Serif" font-size="11.00">convert accumTile to BF16</text>
<text text-anchor="middle" x="542.39" y="-223.7" font-family="Helvetica,sans-Serif" font-size="11.00">pack outputs into xLen words</text>
</g>
<!-- accumulate&#45;&gt;quantize -->
<g id="edge20" class="edge">
<title>accumulate&#45;&gt;quantize</title>
<path fill="none" stroke="#64748b" d="M571.58,-331.41C571.58,-331.41 571.58,-291.47 571.58,-291.47"/>
<polygon fill="#64748b" stroke="#64748b" points="574.38,-291.47 571.58,-283.47 568.78,-291.47 574.38,-291.47"/>
<text text-anchor="middle" x="559.58" y="-314.69" font-family="Helvetica,sans-Serif" font-size="10.00">done</text>
</g>
<!-- writeback -->
<g id="node15" class="node">
<title>writeback</title>
<path fill="#e2e8f0" stroke="#cbd5e1" d="M548.04,-163.45C548.04,-163.45 366.75,-163.45 366.75,-163.45 360.75,-163.45 354.75,-157.45 354.75,-151.45 354.75,-151.45 354.75,-120.55 354.75,-120.55 354.75,-114.55 360.75,-108.55 366.75,-108.55 366.75,-108.55 548.04,-108.55 548.04,-108.55 554.04,-108.55 560.04,-114.55 560.04,-120.55 560.04,-120.55 560.04,-151.45 560.04,-151.45 560.04,-157.45 554.04,-163.45 548.04,-163.45"/>
<text text-anchor="middle" x="457.39" y="-145.8" font-family="Helvetica,sans-Serif" font-size="11.00">Write C Tile</text>
<text text-anchor="middle" x="457.39" y="-132.3" font-family="Helvetica,sans-Serif" font-size="11.00">s_req_put &#45;&gt; s_wait_put</text>
<text text-anchor="middle" x="457.39" y="-118.8" font-family="Helvetica,sans-Serif" font-size="11.00">TileLink Put packed output words</text>
</g>
<!-- quantize&#45;&gt;writeback -->
<g id="edge21" class="edge">
<title>quantize&#45;&gt;writeback</title>
<path fill="none" stroke="#64748b" d="M504.77,-213.24C504.77,-213.24 504.77,-173.27 504.77,-173.27"/>
<polygon fill="#64748b" stroke="#64748b" points="507.57,-173.27 504.77,-165.27 501.97,-173.27 507.57,-173.27"/>
</g>
<!-- writeback&#45;&gt;resp -->
<g id="edge22" class="edge">
<title>writeback&#45;&gt;resp</title>
<path fill="none" stroke="#64748b" d="M354.39,-135C282.23,-135 198.65,-135 198.65,-135 198.65,-135 198.65,-55.77 198.65,-55.77"/>
<polygon fill="#64748b" stroke="#64748b" points="201.45,-55.77 198.65,-47.77 195.85,-55.77 201.45,-55.77"/>
</g>
</g>
</svg>
