<?xml version="1.0" encoding="UTF-8" standalone="no"?>
<!DOCTYPE svg PUBLIC "-//W3C//DTD SVG 1.1//EN"
 "http://www.w3.org/Graphics/SVG/1.1/DTD/svg11.dtd">
<!-- Generated by graphviz version 11.0.0 (20240519.1550)
 -->
<!-- Title: SoftmaxAccelTopDownSimple Pages: 1 -->
<svg width="514pt" height="997pt"
 viewBox="0.00 0.00 513.54 997.00" xmlns="http://www.w3.org/2000/svg" xmlns:xlink="http://www.w3.org/1999/xlink">
<g id="graph0" class="graph" transform="scale(1 1) rotate(0) translate(18 979)">
<title>SoftmaxAccelTopDownSimple</title>
<polygon fill="white" stroke="none" points="-18,18 -18,-979 495.54,-979 495.54,18 -18,18"/>
<text text-anchor="middle" x="190.25" y="-939.9" font-family="Helvetica,sans-Serif" font-size="18.00">SoftmaxAccel simple flow</text>
<text text-anchor="middle" x="190.25" y="-918.15" font-family="Helvetica,sans-Serif" font-size="18.00">OnlineSoftmax BF16 two&#45;pass execution</text>
<!-- root -->
<g id="node1" class="node">
<title>root</title>
<ellipse fill="#e2e8f0" stroke="#cbd5e1" cx="228.52" cy="-880.22" rx="73.57" ry="29.27"/>
<text text-anchor="middle" x="228.52" y="-883.27" font-family="Helvetica,sans-Serif" font-size="11.00">SoftmaxAccel</text>
<text text-anchor="middle" x="228.52" y="-869.77" font-family="Helvetica,sans-Serif" font-size="11.00">OnlineSoftmax</text>
</g>
<!-- command_decode -->
<g id="node2" class="node">
<title>command_decode</title>
<path fill="#fef3c7" stroke="#cbd5e1" d="M278.29,-800.95C278.29,-800.95 178.75,-800.95 178.75,-800.95 172.75,-800.95 166.75,-794.95 166.75,-788.95 166.75,-788.95 166.75,-776.95 166.75,-776.95 166.75,-770.95 172.75,-764.95 178.75,-764.95 178.75,-764.95 278.29,-764.95 278.29,-764.95 284.29,-764.95 290.29,-770.95 290.29,-776.95 290.29,-776.95 290.29,-788.95 290.29,-788.95 290.29,-794.95 284.29,-800.95 278.29,-800.95"/>
<text text-anchor="middle" x="228.52" y="-779.25" font-family="Helvetica,sans-Serif" font-size="11.00">Command Decode</text>
</g>
<!-- root&#45;&gt;command_decode -->
<g id="edge1" class="edge">
<title>root&#45;&gt;command_decode</title>
<path fill="none" stroke="#64748b" d="M228.52,-850.51C228.52,-850.51 228.52,-810.7 228.52,-810.7"/>
<polygon fill="#64748b" stroke="#64748b" points="231.32,-810.7 228.52,-802.7 225.72,-810.7 231.32,-810.7"/>
</g>
<!-- funct0 -->
<g id="node3" class="node">
<title>funct0</title>
<path fill="#dbeafe" stroke="#cbd5e1" d="M185.04,-714.95C185.04,-714.95 24,-714.95 24,-714.95 18,-714.95 12,-708.95 12,-702.95 12,-702.95 12,-658.55 12,-658.55 12,-652.55 18,-646.55 24,-646.55 24,-646.55 185.04,-646.55 185.04,-646.55 191.04,-646.55 197.04,-652.55 197.04,-658.55 197.04,-658.55 197.04,-702.95 197.04,-702.95 197.04,-708.95 191.04,-714.95 185.04,-714.95"/>
<text text-anchor="middle" x="104.52" y="-697.3" font-family="Helvetica,sans-Serif" font-size="11.00">funct 0: ACCUMULATE</text>
<text text-anchor="middle" x="104.52" y="-683.8" font-family="Helvetica,sans-Serif" font-size="11.00">rs1 = input base</text>
<text text-anchor="middle" x="104.52" y="-670.3" font-family="Helvetica,sans-Serif" font-size="11.00">rs2 = array length</text>
<text text-anchor="middle" x="104.52" y="-656.8" font-family="Helvetica,sans-Serif" font-size="11.00">compute max + denominator</text>
</g>
<!-- command_decode&#45;&gt;funct0 -->
<g id="edge2" class="edge">
<title>command_decode&#45;&gt;funct0</title>
<path fill="none" stroke="#64748b" d="M181.9,-764.68C181.9,-764.68 181.9,-724.9 181.9,-724.9"/>
<polygon fill="#64748b" stroke="#64748b" points="184.7,-724.9 181.9,-716.9 179.1,-724.9 184.7,-724.9"/>
</g>
<!-- funct1 -->
<g id="node4" class="node">
<title>funct1</title>
<path fill="#cffafe" stroke="#cbd5e1" d="M465.54,-708.2C465.54,-708.2 241.5,-708.2 241.5,-708.2 235.5,-708.2 229.5,-702.2 229.5,-696.2 229.5,-696.2 229.5,-665.3 229.5,-665.3 229.5,-659.3 235.5,-653.3 241.5,-653.3 241.5,-653.3 465.54,-653.3 465.54,-653.3 471.54,-653.3 477.54,-659.3 477.54,-665.3 477.54,-665.3 477.54,-696.2 477.54,-696.2 477.54,-702.2 471.54,-708.2 465.54,-708.2"/>
<text text-anchor="middle" x="353.52" y="-690.55" font-family="Helvetica,sans-Serif" font-size="11.00">funct 1: NORMALIZE_BF16</text>
<text text-anchor="middle" x="353.52" y="-677.05" font-family="Helvetica,sans-Serif" font-size="11.00">rs1 = output base</text>
<text text-anchor="middle" x="353.52" y="-663.55" font-family="Helvetica,sans-Serif" font-size="11.00">reread input and write BF16 probabilities</text>
</g>
<!-- command_decode&#45;&gt;funct1 -->
<g id="edge3" class="edge">
<title>command_decode&#45;&gt;funct1</title>
<path fill="none" stroke="#64748b" d="M259.89,-764.68C259.89,-764.68 259.89,-718 259.89,-718"/>
<polygon fill="#64748b" stroke="#64748b" points="262.7,-718 259.9,-710 257.1,-718 262.7,-718"/>
</g>
<!-- pass1 -->
<g id="node5" class="node">
<title>pass1</title>
<path fill="#dbeafe" stroke="#cbd5e1" d="M195.17,-596.55C195.17,-596.55 13.88,-596.55 13.88,-596.55 7.88,-596.55 1.88,-590.55 1.88,-584.55 1.88,-584.55 1.88,-567.15 1.88,-567.15 1.88,-561.15 7.88,-555.15 13.88,-555.15 13.88,-555.15 195.17,-555.15 195.17,-555.15 201.17,-555.15 207.17,-561.15 207.17,-567.15 207.17,-567.15 207.17,-584.55 207.17,-584.55 207.17,-590.55 201.17,-596.55 195.17,-596.55"/>
<text text-anchor="middle" x="104.52" y="-578.9" font-family="Helvetica,sans-Serif" font-size="11.00">Pass 1: Accumulate Denominator</text>
<text text-anchor="middle" x="104.52" y="-565.4" font-family="Helvetica,sans-Serif" font-size="11.00">input base + length</text>
</g>
<!-- funct0&#45;&gt;pass1 -->
<g id="edge4" class="edge">
<title>funct0&#45;&gt;pass1</title>
<path fill="none" stroke="#64748b" d="M104.52,-646.11C104.52,-646.11 104.52,-606.5 104.52,-606.5"/>
<polygon fill="#64748b" stroke="#64748b" points="107.32,-606.5 104.52,-598.5 101.72,-606.5 107.32,-606.5"/>
</g>
<!-- pass2 -->
<g id="node9" class="node">
<title>pass2</title>
<path fill="#cffafe" stroke="#cbd5e1" d="M425.04,-596.55C425.04,-596.55 282,-596.55 282,-596.55 276,-596.55 270,-590.55 270,-584.55 270,-584.55 270,-567.15 270,-567.15 270,-561.15 276,-555.15 282,-555.15 282,-555.15 425.04,-555.15 425.04,-555.15 431.04,-555.15 437.04,-561.15 437.04,-567.15 437.04,-567.15 437.04,-584.55 437.04,-584.55 437.04,-590.55 431.04,-596.55 425.04,-596.55"/>
<text text-anchor="middle" x="353.52" y="-578.9" font-family="Helvetica,sans-Serif" font-size="11.00">Pass 2: Normalize + Write</text>
<text text-anchor="middle" x="353.52" y="-565.4" font-family="Helvetica,sans-Serif" font-size="11.00">output base</text>
</g>
<!-- funct1&#45;&gt;pass2 -->
<g id="edge10" class="edge">
<title>funct1&#45;&gt;pass2</title>
<path fill="none" stroke="#64748b" d="M353.52,-652.91C353.52,-652.91 353.52,-606.33 353.52,-606.33"/>
<polygon fill="#64748b" stroke="#64748b" points="356.32,-606.33 353.52,-598.33 350.72,-606.34 356.32,-606.33"/>
</g>
<!-- pass1_read -->
<g id="node6" class="node">
<title>pass1_read</title>
<path fill="#dbeafe" stroke="#cbd5e1" d="M186.92,-505.15C186.92,-505.15 22.12,-505.15 22.12,-505.15 16.12,-505.15 10.13,-499.15 10.13,-493.15 10.13,-493.15 10.13,-462.25 10.13,-462.25 10.13,-456.25 16.13,-450.25 22.13,-450.25 22.13,-450.25 186.92,-450.25 186.92,-450.25 192.92,-450.25 198.92,-456.25 198.92,-462.25 198.92,-462.25 198.92,-493.15 198.92,-493.15 198.92,-499.15 192.92,-505.15 186.92,-505.15"/>
<text text-anchor="middle" x="104.52" y="-487.5" font-family="Helvetica,sans-Serif" font-size="11.00">Read Input Beats</text>
<text text-anchor="middle" x="104.52" y="-474" font-family="Helvetica,sans-Serif" font-size="11.00">s_acq &#45;&gt; s_gnt</text>
<text text-anchor="middle" x="104.52" y="-460.5" font-family="Helvetica,sans-Serif" font-size="11.00">load BF16 lanes from memory</text>
</g>
<!-- pass1&#45;&gt;pass1_read -->
<g id="edge5" class="edge">
<title>pass1&#45;&gt;pass1_read</title>
<path fill="none" stroke="#64748b" d="M104.52,-555.03C104.52,-555.03 104.52,-515.08 104.52,-515.08"/>
<polygon fill="#64748b" stroke="#64748b" points="107.32,-515.08 104.52,-507.08 101.72,-515.08 107.32,-515.08"/>
</g>
<!-- pass1_math -->
<g id="node7" class="node">
<title>pass1_math</title>
<path fill="#dbeafe" stroke="#cbd5e1" d="M197.04,-400.25C197.04,-400.25 12,-400.25 12,-400.25 6,-400.25 0,-394.25 0,-388.25 0,-388.25 0,-357.35 0,-357.35 0,-351.35 6,-345.35 12,-345.35 12,-345.35 197.04,-345.35 197.04,-345.35 203.04,-345.35 209.04,-351.35 209.04,-357.35 209.04,-357.35 209.04,-388.25 209.04,-388.25 209.04,-394.25 203.04,-400.25 197.04,-400.25"/>
<text text-anchor="middle" x="104.52" y="-382.6" font-family="Helvetica,sans-Serif" font-size="11.00">Online Softmax Update</text>
<text text-anchor="middle" x="104.52" y="-369.1" font-family="Helvetica,sans-Serif" font-size="11.00">s_findmax &#45;&gt; s_exp &#45;&gt; s_reduce</text>
<text text-anchor="middle" x="104.52" y="-355.6" font-family="Helvetica,sans-Serif" font-size="11.00">update running max and exp sum</text>
</g>
<!-- pass1_read&#45;&gt;pass1_math -->
<g id="edge6" class="edge">
<title>pass1_read&#45;&gt;pass1_math</title>
<path fill="none" stroke="#64748b" d="M73.06,-449.86C73.06,-449.86 73.06,-409.91 73.06,-409.91"/>
<polygon fill="#64748b" stroke="#64748b" points="75.86,-409.91 73.06,-401.91 70.26,-409.91 75.86,-409.91"/>
</g>
<!-- pass1_math&#45;&gt;pass1_read -->
<g id="edge7" class="edge">
<title>pass1_math&#45;&gt;pass1_read</title>
<path fill="none" stroke="#64748b" d="M135.99,-400.63C135.99,-400.63 135.99,-440.58 135.99,-440.58"/>
<polygon fill="#64748b" stroke="#64748b" points="133.19,-440.58 135.99,-448.58 138.79,-440.58 133.19,-440.58"/>
<text text-anchor="middle" x="109.36" y="-423.86" font-family="Helvetica,sans-Serif" font-size="10.00">more input</text>
</g>
<!-- saved -->
<g id="node8" class="node">
<title>saved</title>
<path fill="#fef3c7" stroke="#cbd5e1" d="M179.42,-176.95C179.42,-176.95 29.62,-176.95 29.62,-176.95 23.62,-176.95 17.63,-170.95 17.63,-164.95 17.63,-164.95 17.63,-120.55 17.63,-120.55 17.63,-114.55 23.63,-108.55 29.63,-108.55 29.63,-108.55 179.42,-108.55 179.42,-108.55 185.42,-108.55 191.42,-114.55 191.42,-120.55 191.42,-120.55 191.42,-164.95 191.42,-164.95 191.42,-170.95 185.42,-176.95 179.42,-176.95"/>
<text text-anchor="middle" x="104.52" y="-159.3" font-family="Helvetica,sans-Serif" font-size="11.00">Saved Between Commands</text>
<text text-anchor="middle" x="104.52" y="-145.8" font-family="Helvetica,sans-Serif" font-size="11.00">inBase, arraySize</text>
<text text-anchor="middle" x="104.52" y="-132.3" font-family="Helvetica,sans-Serif" font-size="11.00">maxPrev = global max</text>
<text text-anchor="middle" x="104.52" y="-118.8" font-family="Helvetica,sans-Serif" font-size="11.00">accum = denominator</text>
</g>
<!-- pass1_math&#45;&gt;saved -->
<g id="edge8" class="edge">
<title>pass1_math&#45;&gt;saved</title>
<path fill="none" stroke="#64748b" d="M102,-345.05C102,-345.05 102,-186.86 102,-186.86"/>
<polygon fill="#64748b" stroke="#64748b" points="104.8,-186.86 102,-178.86 99.2,-186.86 104.8,-186.86"/>
<text text-anchor="middle" x="90" y="-269.2" font-family="Helvetica,sans-Serif" font-size="10.00">done</text>
</g>
<!-- resp -->
<g id="node14" class="node">
<title>resp</title>
<ellipse fill="#e2e8f0" stroke="#cbd5e1" cx="205.52" cy="-29.27" rx="77.28" ry="29.27"/>
<text text-anchor="middle" x="205.52" y="-32.32" font-family="Helvetica,sans-Serif" font-size="11.00">Respond</text>
<text text-anchor="middle" x="205.52" y="-18.82" font-family="Helvetica,sans-Serif" font-size="11.00">s_resp &#45;&gt; s_idle</text>
</g>
<!-- saved&#45;&gt;resp -->
<g id="edge9" class="edge">
<title>saved&#45;&gt;resp</title>
<path fill="none" stroke="#64748b" d="M159.83,-108.09C159.83,-108.09 159.83,-62.82 159.83,-62.82"/>
<polygon fill="#64748b" stroke="#64748b" points="162.63,-62.82 159.83,-54.82 157.03,-62.82 162.63,-62.82"/>
</g>
<!-- reciprocal -->
<g id="node10" class="node">
<title>reciprocal</title>
<path fill="#cffafe" stroke="#cbd5e1" d="M419.04,-498.4C419.04,-498.4 288,-498.4 288,-498.4 282,-498.4 276,-492.4 276,-486.4 276,-486.4 276,-469 276,-469 276,-463 282,-457 288,-457 288,-457 419.04,-457 419.04,-457 425.04,-457 431.04,-463 431.04,-469 431.04,-469 431.04,-486.4 431.04,-486.4 431.04,-492.4 425.04,-498.4 419.04,-498.4"/>
<text text-anchor="middle" x="353.52" y="-480.75" font-family="Helvetica,sans-Serif" font-size="11.00">Compute invSum</text>
<text text-anchor="middle" x="353.52" y="-467.25" font-family="Helvetica,sans-Serif" font-size="11.00">LUT reciprocal of accum</text>
</g>
<!-- pass2&#45;&gt;reciprocal -->
<g id="edge11" class="edge">
<title>pass2&#45;&gt;reciprocal</title>
<path fill="none" stroke="#64748b" d="M353.52,-555.03C353.52,-555.03 353.52,-508.34 353.52,-508.34"/>
<polygon fill="#64748b" stroke="#64748b" points="356.32,-508.34 353.52,-500.34 350.72,-508.34 356.32,-508.34"/>
</g>
<!-- pass2_read -->
<g id="node11" class="node">
<title>pass2_read</title>
<path fill="#cffafe" stroke="#cbd5e1" d="M433.29,-400.25C433.29,-400.25 273.75,-400.25 273.75,-400.25 267.75,-400.25 261.75,-394.25 261.75,-388.25 261.75,-388.25 261.75,-357.35 261.75,-357.35 261.75,-351.35 267.75,-345.35 273.75,-345.35 273.75,-345.35 433.29,-345.35 433.29,-345.35 439.29,-345.35 445.29,-351.35 445.29,-357.35 445.29,-357.35 445.29,-388.25 445.29,-388.25 445.29,-394.25 439.29,-400.25 433.29,-400.25"/>
<text text-anchor="middle" x="353.52" y="-382.6" font-family="Helvetica,sans-Serif" font-size="11.00">Reread Input Beats</text>
<text text-anchor="middle" x="353.52" y="-369.1" font-family="Helvetica,sans-Serif" font-size="11.00">s_acq &#45;&gt; s_gnt</text>
<text text-anchor="middle" x="353.52" y="-355.6" font-family="Helvetica,sans-Serif" font-size="11.00">same input stream as pass 1</text>
</g>
<!-- reciprocal&#45;&gt;pass2_read -->
<g id="edge12" class="edge">
<title>reciprocal&#45;&gt;pass2_read</title>
<path fill="none" stroke="#64748b" d="M353.52,-456.72C353.52,-456.72 353.52,-410.02 353.52,-410.02"/>
<polygon fill="#64748b" stroke="#64748b" points="356.32,-410.02 353.52,-402.02 350.72,-410.02 356.32,-410.02"/>
</g>
<!-- pass2_math -->
<g id="node12" class="node">
<title>pass2_math</title>
<path fill="#cffafe" stroke="#cbd5e1" d="M346.66,-295.35C346.66,-295.35 198.38,-295.35 198.38,-295.35 192.38,-295.35 186.38,-289.35 186.38,-283.35 186.38,-283.35 186.38,-238.95 186.38,-238.95 186.38,-232.95 192.38,-226.95 198.38,-226.95 198.38,-226.95 346.66,-226.95 346.66,-226.95 352.66,-226.95 358.66,-232.95 358.66,-238.95 358.66,-238.95 358.66,-283.35 358.66,-283.35 358.66,-289.35 352.66,-295.35 346.66,-295.35"/>
<text text-anchor="middle" x="272.52" y="-277.7" font-family="Helvetica,sans-Serif" font-size="11.00">Normalize Lanes</text>
<text text-anchor="middle" x="272.52" y="-264.2" font-family="Helvetica,sans-Serif" font-size="11.00">s_exp</text>
<text text-anchor="middle" x="272.52" y="-250.7" font-family="Helvetica,sans-Serif" font-size="11.00">exp(x &#45; maxPrev) * invSum</text>
<text text-anchor="middle" x="272.52" y="-237.2" font-family="Helvetica,sans-Serif" font-size="11.00">convert to BF16</text>
</g>
<!-- pass2_read&#45;&gt;pass2_math -->
<g id="edge13" class="edge">
<title>pass2_read&#45;&gt;pass2_math</title>
<path fill="none" stroke="#64748b" d="M310.21,-344.91C310.21,-344.91 310.21,-304.97 310.21,-304.97"/>
<polygon fill="#64748b" stroke="#64748b" points="313.01,-304.97 310.21,-296.97 307.41,-304.97 313.01,-304.97"/>
</g>
<!-- writeback -->
<g id="node13" class="node">
<title>writeback</title>
<path fill="#dcfce7" stroke="#cbd5e1" d="M378.04,-170.2C378.04,-170.2 235,-170.2 235,-170.2 229,-170.2 223,-164.2 223,-158.2 223,-158.2 223,-127.3 223,-127.3 223,-121.3 229,-115.3 235,-115.3 235,-115.3 378.04,-115.3 378.04,-115.3 384.04,-115.3 390.04,-121.3 390.04,-127.3 390.04,-127.3 390.04,-158.2 390.04,-158.2 390.04,-164.2 384.04,-170.2 378.04,-170.2"/>
<text text-anchor="middle" x="306.52" y="-152.55" font-family="Helvetica,sans-Serif" font-size="11.00">Write Output Beats</text>
<text text-anchor="middle" x="306.52" y="-139.05" font-family="Helvetica,sans-Serif" font-size="11.00">s_put &#45;&gt; s_put_ack</text>
<text text-anchor="middle" x="306.52" y="-125.55" font-family="Helvetica,sans-Serif" font-size="11.00">TileLink Put with tail mask</text>
</g>
<!-- pass2_math&#45;&gt;writeback -->
<g id="edge14" class="edge">
<title>pass2_math&#45;&gt;writeback</title>
<path fill="none" stroke="#64748b" d="M290.83,-226.58C290.83,-226.58 290.83,-179.92 290.83,-179.92"/>
<polygon fill="#64748b" stroke="#64748b" points="293.63,-179.92 290.83,-171.92 288.03,-179.92 293.63,-179.92"/>
</g>
<!-- writeback&#45;&gt;pass2_read -->
<g id="edge15" class="edge">
<title>writeback&#45;&gt;pass2_read</title>
<path fill="none" stroke="#64748b" d="M374.35,-170.5C374.35,-170.5 374.35,-335.44 374.35,-335.44"/>
<polygon fill="#64748b" stroke="#64748b" points="371.55,-335.44 374.35,-343.44 377.15,-335.44 371.55,-335.44"/>
<text text-anchor="middle" x="400.98" y="-256.22" font-family="Helvetica,sans-Serif" font-size="10.00">more input</text>
</g>
<!-- writeback&#45;&gt;resp -->
<g id="edge16" class="edge">
<title>writeback&#45;&gt;resp</title>
<path fill="none" stroke="#64748b" d="M252.9,-114.99C252.9,-114.99 252.9,-62.05 252.9,-62.05"/>
<polygon fill="#64748b" stroke="#64748b" points="255.7,-62.05 252.9,-54.05 250.1,-62.05 255.7,-62.05"/>
<text text-anchor="middle" x="240.9" y="-91.77" font-family="Helvetica,sans-Serif" font-size="10.00">done</text>
</g>
</g>
</svg>
