<?xml version="1.0" encoding="UTF-8" standalone="no"?>
<!DOCTYPE svg PUBLIC "-//W3C//DTD SVG 1.1//EN"
 "http://www.w3.org/Graphics/SVG/1.1/DTD/svg11.dtd">
<!-- Generated by graphviz version 11.0.0 (20240519.1550)
 -->
<!-- Title: SoftmaxAccelTopDownTiny Pages: 1 -->
<svg width="258pt" height="574pt"
 viewBox="0.00 0.00 257.50 573.55" xmlns="http://www.w3.org/2000/svg" xmlns:xlink="http://www.w3.org/1999/xlink">
<g id="graph0" class="graph" transform="scale(1 1) rotate(0) translate(18 555.55)">
<title>SoftmaxAccelTopDownTiny</title>
<polygon fill="white" stroke="none" points="-18,18 -18,-555.55 239.5,-555.55 239.5,18 -18,18"/>
<text text-anchor="middle" x="110.75" y="-516.45" font-family="Helvetica,sans-Serif" font-size="18.00">SoftmaxAccel tiny flow</text>
<!-- root -->
<g id="node1" class="node">
<title>root</title>
<ellipse fill="#e2e8f0" stroke="#cbd5e1" cx="110.75" cy="-478.52" rx="73.57" ry="29.27"/>
<text text-anchor="middle" x="110.75" y="-481.57" font-family="Helvetica,sans-Serif" font-size="11.00">SoftmaxAccel</text>
<text text-anchor="middle" x="110.75" y="-468.07" font-family="Helvetica,sans-Serif" font-size="11.00">OnlineSoftmax</text>
</g>
<!-- pass1 -->
<g id="node2" class="node">
<title>pass1</title>
<path fill="#dbeafe" stroke="#cbd5e1" d="M167.64,-406.25C167.64,-406.25 53.86,-406.25 53.86,-406.25 47.86,-406.25 41.86,-400.25 41.86,-394.25 41.86,-394.25 41.86,-336.35 41.86,-336.35 41.86,-330.35 47.86,-324.35 53.86,-324.35 53.86,-324.35 167.64,-324.35 167.64,-324.35 173.64,-324.35 179.64,-330.35 179.64,-336.35 179.64,-336.35 179.64,-394.25 179.64,-394.25 179.64,-400.25 173.64,-406.25 167.64,-406.25"/>
<text text-anchor="middle" x="110.75" y="-388.6" font-family="Helvetica,sans-Serif" font-size="11.00">Pass 1</text>
<text text-anchor="middle" x="110.75" y="-375.1" font-family="Helvetica,sans-Serif" font-size="11.00">funct 0</text>
<text text-anchor="middle" x="110.75" y="-361.6" font-family="Helvetica,sans-Serif" font-size="11.00">read input</text>
<text text-anchor="middle" x="110.75" y="-348.1" font-family="Helvetica,sans-Serif" font-size="11.00">find global max</text>
<text text-anchor="middle" x="110.75" y="-334.6" font-family="Helvetica,sans-Serif" font-size="11.00">accumulate exp sum</text>
</g>
<!-- root&#45;&gt;pass1 -->
<g id="edge1" class="edge">
<title>root&#45;&gt;pass1</title>
<path fill="none" stroke="#64748b" d="M110.75,-448.77C110.75,-448.77 110.75,-415.85 110.75,-415.85"/>
<polygon fill="#64748b" stroke="#64748b" points="113.55,-415.85 110.75,-407.85 107.95,-415.85 113.55,-415.85"/>
</g>
<!-- saved_state -->
<g id="node3" class="node">
<title>saved_state</title>
<path fill="#fef3c7" stroke="#cbd5e1" d="M156.39,-281.35C156.39,-281.35 65.11,-281.35 65.11,-281.35 59.11,-281.35 53.11,-275.35 53.11,-269.35 53.11,-269.35 53.11,-238.45 53.11,-238.45 53.11,-232.45 59.11,-226.45 65.11,-226.45 65.11,-226.45 156.39,-226.45 156.39,-226.45 162.39,-226.45 168.39,-232.45 168.39,-238.45 168.39,-238.45 168.39,-269.35 168.39,-269.35 168.39,-275.35 162.39,-281.35 156.39,-281.35"/>
<text text-anchor="middle" x="110.75" y="-263.7" font-family="Helvetica,sans-Serif" font-size="11.00">Saved State</text>
<text text-anchor="middle" x="110.75" y="-250.2" font-family="Helvetica,sans-Serif" font-size="11.00">inBase, length</text>
<text text-anchor="middle" x="110.75" y="-236.7" font-family="Helvetica,sans-Serif" font-size="11.00">maxPrev, accum</text>
</g>
<!-- pass1&#45;&gt;saved_state -->
<g id="edge2" class="edge">
<title>pass1&#45;&gt;saved_state</title>
<path fill="none" stroke="#64748b" d="M110.75,-324.13C110.75,-324.13 110.75,-291.22 110.75,-291.22"/>
<polygon fill="#64748b" stroke="#64748b" points="113.55,-291.22 110.75,-283.22 107.95,-291.22 113.55,-291.22"/>
</g>
<!-- pass2 -->
<g id="node4" class="node">
<title>pass2</title>
<path fill="#cffafe" stroke="#cbd5e1" d="M169.52,-183.45C169.52,-183.45 51.98,-183.45 51.98,-183.45 45.98,-183.45 39.98,-177.45 39.98,-171.45 39.98,-171.45 39.98,-113.55 39.98,-113.55 39.98,-107.55 45.98,-101.55 51.98,-101.55 51.98,-101.55 169.52,-101.55 169.52,-101.55 175.52,-101.55 181.52,-107.55 181.52,-113.55 181.52,-113.55 181.52,-171.45 181.52,-171.45 181.52,-177.45 175.52,-183.45 169.52,-183.45"/>
<text text-anchor="middle" x="110.75" y="-165.8" font-family="Helvetica,sans-Serif" font-size="11.00">Pass 2</text>
<text text-anchor="middle" x="110.75" y="-152.3" font-family="Helvetica,sans-Serif" font-size="11.00">funct 1</text>
<text text-anchor="middle" x="110.75" y="-138.8" font-family="Helvetica,sans-Serif" font-size="11.00">reread input</text>
<text text-anchor="middle" x="110.75" y="-125.3" font-family="Helvetica,sans-Serif" font-size="11.00">normalize with 1/sum</text>
<text text-anchor="middle" x="110.75" y="-111.8" font-family="Helvetica,sans-Serif" font-size="11.00">write BF16 output</text>
</g>
<!-- saved_state&#45;&gt;pass2 -->
<g id="edge3" class="edge">
<title>saved_state&#45;&gt;pass2</title>
<path fill="none" stroke="#64748b" d="M110.75,-226.07C110.75,-226.07 110.75,-193.36 110.75,-193.36"/>
<polygon fill="#64748b" stroke="#64748b" points="113.55,-193.36 110.75,-185.36 107.95,-193.36 113.55,-193.36"/>
</g>
<!-- done -->
<g id="node5" class="node">
<title>done</title>
<ellipse fill="#e2e8f0" stroke="#cbd5e1" cx="110.75" cy="-29.27" rx="69.32" ry="29.27"/>
<text text-anchor="middle" x="110.75" y="-32.32" font-family="Helvetica,sans-Serif" font-size="11.00">s_resp</text>
<text text-anchor="middle" x="110.75" y="-18.82" font-family="Helvetica,sans-Serif" font-size="11.00">return to CPU</text>
</g>
<!-- pass2&#45;&gt;done -->
<g id="edge4" class="edge">
<title>pass2&#45;&gt;done</title>
<path fill="none" stroke="#64748b" d="M110.75,-101.3C110.75,-101.3 110.75,-68.42 110.75,-68.42"/>
<polygon fill="#64748b" stroke="#64748b" points="113.55,-68.42 110.75,-60.42 107.95,-68.42 113.55,-68.42"/>
</g>
</g>
</svg>
