<?xml version="1.0" encoding="UTF-8" standalone="no"?>
<!DOCTYPE svg PUBLIC "-//W3C//DTD SVG 1.1//EN"
 "http://www.w3.org/Graphics/SVG/1.1/DTD/svg11.dtd">
<!-- Generated by graphviz version 11.0.0 (20240519.1550)
 -->
<!-- Title: SoftmaxAccelTopDownMinimal Pages: 1 -->
<svg width="809pt" height="1212pt"
 viewBox="0.00 0.00 809.29 1211.65" xmlns="http://www.w3.org/2000/svg" xmlns:xlink="http://www.w3.org/1999/xlink">
<g id="graph0" class="graph" transform="scale(1 1) rotate(0) translate(18 1193.65)">
<title>SoftmaxAccelTopDownMinimal</title>
<polygon fill="white" stroke="none" points="-18,18 -18,-1193.65 791.29,-1193.65 791.29,18 -18,18"/>
<text text-anchor="middle" x="183.12" y="-1154.55" font-family="Helvetica,sans-Serif" font-size="18.00">SoftmaxAccel top&#45;down</text>
<text text-anchor="middle" x="183.12" y="-1132.8" font-family="Helvetica,sans-Serif" font-size="18.00">OnlineSoftmax two&#45;pass BF16 softmax</text>
<!-- root -->
<g id="node1" class="node">
<title>root</title>
<ellipse fill="#e2e8f0" stroke="#cbd5e1" cx="332.64" cy="-1094.87" rx="73.57" ry="29.27"/>
<text text-anchor="middle" x="332.64" y="-1097.92" font-family="Helvetica,sans-Serif" font-size="11.00">SoftmaxAccel</text>
<text text-anchor="middle" x="332.64" y="-1084.42" font-family="Helvetica,sans-Serif" font-size="11.00">OnlineSoftmax</text>
</g>
<!-- config -->
<g id="node2" class="node">
<title>config</title>
<path fill="#fef3c7" stroke="#cbd5e1" d="M222.79,-1015.6C222.79,-1015.6 86.5,-1015.6 86.5,-1015.6 80.5,-1015.6 74.5,-1009.6 74.5,-1003.6 74.5,-1003.6 74.5,-945.7 74.5,-945.7 74.5,-939.7 80.5,-933.7 86.5,-933.7 86.5,-933.7 222.79,-933.7 222.79,-933.7 228.79,-933.7 234.79,-939.7 234.79,-945.7 234.79,-945.7 234.79,-1003.6 234.79,-1003.6 234.79,-1009.6 228.79,-1015.6 222.79,-1015.6"/>
<text text-anchor="middle" x="154.64" y="-997.95" font-family="Helvetica,sans-Serif" font-size="11.00">Config</text>
<text text-anchor="middle" x="154.64" y="-984.45" font-family="Helvetica,sans-Serif" font-size="11.00">intPrecision=32</text>
<text text-anchor="middle" x="154.64" y="-970.95" font-family="Helvetica,sans-Serif" font-size="11.00">fracPrecision=32</text>
<text text-anchor="middle" x="154.64" y="-957.45" font-family="Helvetica,sans-Serif" font-size="11.00">useBFloat16Output=true</text>
<text text-anchor="middle" x="154.64" y="-943.95" font-family="Helvetica,sans-Serif" font-size="11.00">opcode custom0</text>
</g>
<!-- root&#45;&gt;config -->
<g id="edge1" class="edge">
<title>root&#45;&gt;config</title>
<path fill="none" stroke="#64748b" d="M263.1,-1084.87C263.1,-1060.12 263.1,-998 263.1,-998 263.1,-998 244.68,-998 244.68,-998"/>
<polygon fill="#64748b" stroke="#64748b" points="244.68,-995.2 236.68,-998 244.68,-1000.8 244.68,-995.2"/>
</g>
<!-- commands -->
<g id="node3" class="node">
<title>commands</title>
<path fill="#fef3c7" stroke="#cbd5e1" d="M386.16,-992.65C386.16,-992.65 279.12,-992.65 279.12,-992.65 273.12,-992.65 267.12,-986.65 267.12,-980.65 267.12,-980.65 267.12,-968.65 267.12,-968.65 267.12,-962.65 273.12,-956.65 279.12,-956.65 279.12,-956.65 386.16,-956.65 386.16,-956.65 392.16,-956.65 398.16,-962.65 398.16,-968.65 398.16,-968.65 398.16,-980.65 398.16,-980.65 398.16,-986.65 392.16,-992.65 386.16,-992.65"/>
<text text-anchor="middle" x="332.64" y="-970.95" font-family="Helvetica,sans-Serif" font-size="11.00">Command Interface</text>
</g>
<!-- root&#45;&gt;commands -->
<g id="edge2" class="edge">
<title>root&#45;&gt;commands</title>
<path fill="none" stroke="#64748b" d="M332.64,-1065.16C332.64,-1065.16 332.64,-1002.34 332.64,-1002.34"/>
<polygon fill="#64748b" stroke="#64748b" points="335.45,-1002.34 332.65,-994.34 329.85,-1002.34 335.45,-1002.34"/>
</g>
<!-- note -->
<g id="node16" class="node">
<title>note</title>
<polygon fill="#fff7ed" stroke="#fdba74" points="767.29,-1008.85 430,-1008.85 430,-940.45 773.29,-940.45 773.29,-1002.85 767.29,-1008.85"/>
<polyline fill="none" stroke="#fdba74" points="767.29,-1008.85 767.29,-1002.85"/>
<polyline fill="none" stroke="#fdba74" points="773.29,-1002.85 767.29,-1002.85"/>
<text text-anchor="middle" x="601.64" y="-991.2" font-family="Helvetica,sans-Serif" font-size="11.00">Software calls two commands:</text>
<text text-anchor="middle" x="601.64" y="-977.7" font-family="Helvetica,sans-Serif" font-size="11.00">1. online_softmax_accumulate_denominator(input, length)</text>
<text text-anchor="middle" x="601.64" y="-964.2" font-family="Helvetica,sans-Serif" font-size="11.00">2. online_softmax_write_bf16(output)</text>
<text text-anchor="middle" x="601.64" y="-950.7" font-family="Helvetica,sans-Serif" font-size="11.00">The accelerator rereads the input during pass 2.</text>
</g>
<!-- root&#45;&gt;note -->
<g id="edge3" class="edge">
<title>root&#45;&gt;note</title>
<path fill="none" stroke="#d97706" stroke-dasharray="5,2" d="M402.19,-1084.69C402.19,-1060.77 402.19,-1003 402.19,-1003 402.19,-1003 419.99,-1003 419.99,-1003"/>
<polygon fill="#d97706" stroke="#d97706" points="419.99,-1005.8 427.99,-1003 419.99,-1000.2 419.99,-1005.8"/>
</g>
<!-- pass1_cmd -->
<g id="node4" class="node">
<title>pass1_cmd</title>
<path fill="#dbeafe" stroke="#cbd5e1" d="M297.66,-883.7C297.66,-883.7 115.62,-883.7 115.62,-883.7 109.62,-883.7 103.62,-877.7 103.62,-871.7 103.62,-871.7 103.62,-827.3 103.62,-827.3 103.62,-821.3 109.62,-815.3 115.62,-815.3 115.62,-815.3 297.66,-815.3 297.66,-815.3 303.66,-815.3 309.66,-821.3 309.66,-827.3 309.66,-827.3 309.66,-871.7 309.66,-871.7 309.66,-877.7 303.66,-883.7 297.66,-883.7"/>
<text text-anchor="middle" x="206.64" y="-866.05" font-family="Helvetica,sans-Serif" font-size="11.00">Pass 1 Command</text>
<text text-anchor="middle" x="206.64" y="-852.55" font-family="Helvetica,sans-Serif" font-size="11.00">funct 0: accumulate denominator</text>
<text text-anchor="middle" x="206.64" y="-839.05" font-family="Helvetica,sans-Serif" font-size="11.00">rs1 = input base</text>
<text text-anchor="middle" x="206.64" y="-825.55" font-family="Helvetica,sans-Serif" font-size="11.00">rs2 = array length</text>
</g>
<!-- commands&#45;&gt;pass1_cmd -->
<g id="edge4" class="edge">
<title>commands&#45;&gt;pass1_cmd</title>
<path fill="none" stroke="#64748b" d="M288.39,-956.18C288.39,-956.18 288.39,-893.65 288.39,-893.65"/>
<polygon fill="#64748b" stroke="#64748b" points="291.2,-893.65 288.4,-885.65 285.6,-893.65 291.2,-893.65"/>
</g>
<!-- pass2_cmd -->
<g id="node5" class="node">
<title>pass2_cmd</title>
<path fill="#cffafe" stroke="#cbd5e1" d="M563.16,-883.7C563.16,-883.7 354.12,-883.7 354.12,-883.7 348.12,-883.7 342.12,-877.7 342.12,-871.7 342.12,-871.7 342.12,-827.3 342.12,-827.3 342.12,-821.3 348.12,-815.3 354.12,-815.3 354.12,-815.3 563.16,-815.3 563.16,-815.3 569.16,-815.3 575.16,-821.3 575.16,-827.3 575.16,-827.3 575.16,-871.7 575.16,-871.7 575.16,-877.7 569.16,-883.7 563.16,-883.7"/>
<text text-anchor="middle" x="458.64" y="-866.05" font-family="Helvetica,sans-Serif" font-size="11.00">Pass 2 Command</text>
<text text-anchor="middle" x="458.64" y="-852.55" font-family="Helvetica,sans-Serif" font-size="11.00">funct != 0: normalize + write</text>
<text text-anchor="middle" x="458.64" y="-839.05" font-family="Helvetica,sans-Serif" font-size="11.00">rs1 = output base</text>
<text text-anchor="middle" x="458.64" y="-825.55" font-family="Helvetica,sans-Serif" font-size="11.00">uses saved input base, max, and sum</text>
</g>
<!-- commands&#45;&gt;pass2_cmd -->
<g id="edge5" class="edge">
<title>commands&#45;&gt;pass2_cmd</title>
<path fill="none" stroke="#64748b" d="M370.14,-956.18C370.14,-956.18 370.14,-893.65 370.14,-893.65"/>
<polygon fill="#64748b" stroke="#64748b" points="372.95,-893.65 370.15,-885.65 367.35,-893.65 372.95,-893.65"/>
</g>
<!-- pass1_init -->
<g id="node6" class="node">
<title>pass1_init</title>
<path fill="#dbeafe" stroke="#cbd5e1" d="M321.29,-640.15C321.29,-640.15 194,-640.15 194,-640.15 188,-640.15 182,-634.15 182,-628.15 182,-628.15 182,-583.75 182,-583.75 182,-577.75 188,-571.75 194,-571.75 194,-571.75 321.29,-571.75 321.29,-571.75 327.29,-571.75 333.29,-577.75 333.29,-583.75 333.29,-583.75 333.29,-628.15 333.29,-628.15 333.29,-634.15 327.29,-640.15 321.29,-640.15"/>
<text text-anchor="middle" x="257.64" y="-622.5" font-family="Helvetica,sans-Serif" font-size="11.00">Pass 1 Init</text>
<text text-anchor="middle" x="257.64" y="-609" font-family="Helvetica,sans-Serif" font-size="11.00">reset accum, maxPrev,</text>
<text text-anchor="middle" x="257.64" y="-595.5" font-family="Helvetica,sans-Serif" font-size="11.00">procElements, inAddr</text>
<text text-anchor="middle" x="257.64" y="-582" font-family="Helvetica,sans-Serif" font-size="11.00">set doWrite=false</text>
</g>
<!-- pass1_cmd&#45;&gt;pass1_init -->
<g id="edge6" class="edge">
<title>pass1_cmd&#45;&gt;pass1_init</title>
<path fill="none" stroke="#64748b" d="M245.83,-814.86C245.83,-814.86 245.83,-649.98 245.83,-649.98"/>
<polygon fill="#64748b" stroke="#64748b" points="248.63,-649.98 245.83,-641.98 243.03,-649.98 248.63,-649.98"/>
</g>
<!-- recip -->
<g id="node11" class="node">
<title>recip</title>
<path fill="#cffafe" stroke="#cbd5e1" d="M545.04,-765.3C545.04,-765.3 362.25,-765.3 362.25,-765.3 356.25,-765.3 350.25,-759.3 350.25,-753.3 350.25,-753.3 350.25,-708.9 350.25,-708.9 350.25,-702.9 356.25,-696.9 362.25,-696.9 362.25,-696.9 545.04,-696.9 545.04,-696.9 551.04,-696.9 557.04,-702.9 557.04,-708.9 557.04,-708.9 557.04,-753.3 557.04,-753.3 557.04,-759.3 551.04,-765.3 545.04,-765.3"/>
<text text-anchor="middle" x="453.64" y="-747.65" font-family="Helvetica,sans-Serif" font-size="11.00">Reciprocal Estimate</text>
<text text-anchor="middle" x="453.64" y="-734.15" font-family="Helvetica,sans-Serif" font-size="11.00">invSum := LUT reciprocal(accum)</text>
<text text-anchor="middle" x="453.64" y="-720.65" font-family="Helvetica,sans-Serif" font-size="11.00">normalize mantissa to [1,2)</text>
<text text-anchor="middle" x="453.64" y="-707.15" font-family="Helvetica,sans-Serif" font-size="11.00">rescale by exponent</text>
</g>
<!-- pass2_cmd&#45;&gt;recip -->
<g id="edge13" class="edge">
<title>pass2_cmd&#45;&gt;recip</title>
<path fill="none" stroke="#64748b" d="M453.64,-814.94C453.64,-814.94 453.64,-775.02 453.64,-775.02"/>
<polygon fill="#64748b" stroke="#64748b" points="456.45,-775.02 453.65,-767.02 450.85,-775.02 456.45,-775.02"/>
</g>
<!-- read_loop -->
<g id="node7" class="node">
<title>read_loop</title>
<path fill="#dbeafe" stroke="#cbd5e1" d="M425.66,-515C425.66,-515 273.62,-515 273.62,-515 267.62,-515 261.62,-509 261.62,-503 261.62,-503 261.62,-458.6 261.62,-458.6 261.62,-452.6 267.62,-446.6 273.62,-446.6 273.62,-446.6 425.66,-446.6 425.66,-446.6 431.66,-446.6 437.66,-452.6 437.66,-458.6 437.66,-458.6 437.66,-503 437.66,-503 437.66,-509 431.66,-515 425.66,-515"/>
<text text-anchor="middle" x="349.64" y="-497.35" font-family="Helvetica,sans-Serif" font-size="11.00">Input Read Loop</text>
<text text-anchor="middle" x="349.64" y="-483.85" font-family="Helvetica,sans-Serif" font-size="11.00">s_acq &#45;&gt; s_gnt</text>
<text text-anchor="middle" x="349.64" y="-470.35" font-family="Helvetica,sans-Serif" font-size="11.00">TileLink Get one cache beat</text>
<text text-anchor="middle" x="349.64" y="-456.85" font-family="Helvetica,sans-Serif" font-size="11.00">latch BF16 input vector</text>
</g>
<!-- pass1_init&#45;&gt;read_loop -->
<g id="edge7" class="edge">
<title>pass1_init&#45;&gt;read_loop</title>
<path fill="none" stroke="#64748b" d="M297.46,-571.42C297.46,-571.42 297.46,-524.73 297.46,-524.73"/>
<polygon fill="#64748b" stroke="#64748b" points="300.26,-524.73 297.46,-516.73 294.66,-524.73 300.26,-524.73"/>
</g>
<!-- findmax -->
<g id="node8" class="node">
<title>findmax</title>
<path fill="#dbeafe" stroke="#cbd5e1" d="M205.29,-396.6C205.29,-396.6 12,-396.6 12,-396.6 6,-396.6 0,-390.6 0,-384.6 0,-384.6 0,-340.2 0,-340.2 0,-334.2 6,-328.2 12,-328.2 12,-328.2 205.29,-328.2 205.29,-328.2 211.29,-328.2 217.29,-334.2 217.29,-340.2 217.29,-340.2 217.29,-384.6 217.29,-384.6 217.29,-390.6 211.29,-396.6 205.29,-396.6"/>
<text text-anchor="middle" x="108.64" y="-378.95" font-family="Helvetica,sans-Serif" font-size="11.00">Find Beat Max</text>
<text text-anchor="middle" x="108.64" y="-365.45" font-family="Helvetica,sans-Serif" font-size="11.00">s_findmax</text>
<text text-anchor="middle" x="108.64" y="-351.95" font-family="Helvetica,sans-Serif" font-size="11.00">BFloat16VectorMax + BFloat16Max</text>
<text text-anchor="middle" x="108.64" y="-338.45" font-family="Helvetica,sans-Serif" font-size="11.00">update maxCurr</text>
</g>
<!-- read_loop&#45;&gt;findmax -->
<g id="edge8" class="edge">
<title>read_loop&#45;&gt;findmax</title>
<path fill="none" stroke="#64748b" d="M261.52,-480C228.87,-480 199.64,-480 199.64,-480 199.64,-480 199.64,-406.56 199.64,-406.56"/>
<polygon fill="#64748b" stroke="#64748b" points="202.45,-406.56 199.65,-398.56 196.85,-406.56 202.45,-406.56"/>
</g>
<!-- normalize -->
<g id="node13" class="node">
<title>normalize</title>
<path fill="#cffafe" stroke="#cbd5e1" d="M537.91,-396.6C537.91,-396.6 327.38,-396.6 327.38,-396.6 321.38,-396.6 315.38,-390.6 315.38,-384.6 315.38,-384.6 315.38,-340.2 315.38,-340.2 315.38,-334.2 321.38,-328.2 327.38,-328.2 327.38,-328.2 537.91,-328.2 537.91,-328.2 543.91,-328.2 549.91,-334.2 549.91,-340.2 549.91,-340.2 549.91,-384.6 549.91,-384.6 549.91,-390.6 543.91,-396.6 537.91,-396.6"/>
<text text-anchor="middle" x="432.64" y="-378.95" font-family="Helvetica,sans-Serif" font-size="11.00">Normalize Beat</text>
<text text-anchor="middle" x="432.64" y="-365.45" font-family="Helvetica,sans-Serif" font-size="11.00">s_exp</text>
<text text-anchor="middle" x="432.64" y="-351.95" font-family="Helvetica,sans-Serif" font-size="11.00">exp(x &#45; maxPrev) * invSum</text>
<text text-anchor="middle" x="432.64" y="-338.45" font-family="Helvetica,sans-Serif" font-size="11.00">convert fixed&#45;point probability to BF16</text>
</g>
<!-- read_loop&#45;&gt;normalize -->
<g id="edge16" class="edge">
<title>read_loop&#45;&gt;normalize</title>
<path fill="none" stroke="#64748b" d="M376.52,-446.24C376.52,-446.24 376.52,-406.32 376.52,-406.32"/>
<polygon fill="#64748b" stroke="#64748b" points="379.32,-406.32 376.52,-398.32 373.72,-406.32 379.32,-406.32"/>
<text text-anchor="middle" x="357.39" y="-429.53" font-family="Helvetica,sans-Serif" font-size="10.00">doWrite</text>
</g>
<!-- reduce -->
<g id="node9" class="node">
<title>reduce</title>
<path fill="#dbeafe" stroke="#cbd5e1" d="M353.66,-278.2C353.66,-278.2 63.62,-278.2 63.62,-278.2 57.62,-278.2 51.62,-272.2 51.62,-266.2 51.62,-266.2 51.62,-221.8 51.62,-221.8 51.62,-215.8 57.62,-209.8 63.62,-209.8 63.62,-209.8 353.66,-209.8 353.66,-209.8 359.66,-209.8 365.66,-215.8 365.66,-221.8 365.66,-221.8 365.66,-266.2 365.66,-266.2 365.66,-272.2 359.66,-278.2 353.66,-278.2"/>
<text text-anchor="middle" x="208.64" y="-260.55" font-family="Helvetica,sans-Serif" font-size="11.00">Online Denominator Update</text>
<text text-anchor="middle" x="208.64" y="-247.05" font-family="Helvetica,sans-Serif" font-size="11.00">s_exp &#45;&gt; s_reduce</text>
<text text-anchor="middle" x="208.64" y="-233.55" font-family="Helvetica,sans-Serif" font-size="11.00">exp(x &#45; newMax)</text>
<text text-anchor="middle" x="208.64" y="-220.05" font-family="Helvetica,sans-Serif" font-size="11.00">accum := vecSum + accum * exp(oldMax &#45; newMax)</text>
</g>
<!-- findmax&#45;&gt;reduce -->
<g id="edge9" class="edge">
<title>findmax&#45;&gt;reduce</title>
<path fill="none" stroke="#64748b" d="M134.46,-327.84C134.46,-327.84 134.46,-287.92 134.46,-287.92"/>
<polygon fill="#64748b" stroke="#64748b" points="137.26,-287.92 134.46,-279.92 131.66,-287.92 137.26,-287.92"/>
</g>
<!-- reduce&#45;&gt;read_loop -->
<g id="edge10" class="edge">
<title>reduce&#45;&gt;read_loop</title>
<path fill="none" stroke="#64748b" d="M288.5,-278.69C288.5,-278.69 288.5,-436.89 288.5,-436.89"/>
<polygon fill="#64748b" stroke="#64748b" points="285.7,-436.89 288.5,-444.89 291.3,-436.89 285.7,-436.89"/>
<text text-anchor="middle" x="269.94" y="-348.29" font-family="Helvetica,sans-Serif" font-size="10.00">more elements</text>
</g>
<!-- pass1_done -->
<g id="node10" class="node">
<title>pass1_done</title>
<path fill="#dbeafe" stroke="#cbd5e1" d="M355.79,-159.8C355.79,-159.8 207.5,-159.8 207.5,-159.8 201.5,-159.8 195.5,-153.8 195.5,-147.8 195.5,-147.8 195.5,-103.4 195.5,-103.4 195.5,-97.4 201.5,-91.4 207.5,-91.4 207.5,-91.4 355.79,-91.4 355.79,-91.4 361.79,-91.4 367.79,-97.4 367.79,-103.4 367.79,-103.4 367.79,-147.8 367.79,-147.8 367.79,-153.8 361.79,-159.8 355.79,-159.8"/>
<text text-anchor="middle" x="281.64" y="-142.15" font-family="Helvetica,sans-Serif" font-size="11.00">Pass 1 Done</text>
<text text-anchor="middle" x="281.64" y="-128.65" font-family="Helvetica,sans-Serif" font-size="11.00">s_resp</text>
<text text-anchor="middle" x="281.64" y="-115.15" font-family="Helvetica,sans-Serif" font-size="11.00">maxPrev = global max</text>
<text text-anchor="middle" x="281.64" y="-101.65" font-family="Helvetica,sans-Serif" font-size="11.00">accum = denominator sum</text>
</g>
<!-- reduce&#45;&gt;pass1_done -->
<g id="edge11" class="edge">
<title>reduce&#45;&gt;pass1_done</title>
<path fill="none" stroke="#64748b" d="M280.58,-209.44C280.58,-209.44 280.58,-169.52 280.58,-169.52"/>
<polygon fill="#64748b" stroke="#64748b" points="283.38,-169.52 280.58,-161.52 277.78,-169.52 283.38,-169.52"/>
<text text-anchor="middle" x="268.58" y="-192.73" font-family="Helvetica,sans-Serif" font-size="10.00">done</text>
</g>
<!-- resp -->
<g id="node15" class="node">
<title>resp</title>
<path fill="#e2e8f0" stroke="#cbd5e1" d="M391.29,-41.4C391.29,-41.4 306,-41.4 306,-41.4 300,-41.4 294,-35.4 294,-29.4 294,-29.4 294,-12 294,-12 294,-6 300,0 306,0 306,0 391.29,0 391.29,0 397.29,0 403.29,-6 403.29,-12 403.29,-12 403.29,-29.4 403.29,-29.4 403.29,-35.4 397.29,-41.4 391.29,-41.4"/>
<text text-anchor="middle" x="348.64" y="-23.75" font-family="Helvetica,sans-Serif" font-size="11.00">Respond</text>
<text text-anchor="middle" x="348.64" y="-10.25" font-family="Helvetica,sans-Serif" font-size="11.00">s_resp &#45;&gt; s_idle</text>
</g>
<!-- pass1_done&#45;&gt;resp -->
<g id="edge12" class="edge">
<title>pass1_done&#45;&gt;resp</title>
<path fill="none" stroke="#64748b" d="M330.89,-90.96C330.89,-90.96 330.89,-51.35 330.89,-51.35"/>
<polygon fill="#64748b" stroke="#64748b" points="333.7,-51.35 330.9,-43.35 328.1,-51.35 333.7,-51.35"/>
</g>
<!-- pass2_init -->
<g id="node12" class="node">
<title>pass2_init</title>
<path fill="#cffafe" stroke="#cbd5e1" d="M513.66,-646.9C513.66,-646.9 385.62,-646.9 385.62,-646.9 379.62,-646.9 373.62,-640.9 373.62,-634.9 373.62,-634.9 373.62,-577 373.62,-577 373.62,-571 379.62,-565 385.62,-565 385.62,-565 513.66,-565 513.66,-565 519.66,-565 525.66,-571 525.66,-577 525.66,-577 525.66,-634.9 525.66,-634.9 525.66,-640.9 519.66,-646.9 513.66,-646.9"/>
<text text-anchor="middle" x="449.64" y="-629.25" font-family="Helvetica,sans-Serif" font-size="11.00">Pass 2 Init</text>
<text text-anchor="middle" x="449.64" y="-615.75" font-family="Helvetica,sans-Serif" font-size="11.00">set doWrite=true</text>
<text text-anchor="middle" x="449.64" y="-602.25" font-family="Helvetica,sans-Serif" font-size="11.00">outAddr := rs1</text>
<text text-anchor="middle" x="449.64" y="-588.75" font-family="Helvetica,sans-Serif" font-size="11.00">inAddr := saved inBase</text>
<text text-anchor="middle" x="449.64" y="-575.25" font-family="Helvetica,sans-Serif" font-size="11.00">procElements := 0</text>
</g>
<!-- recip&#45;&gt;pass2_init -->
<g id="edge14" class="edge">
<title>recip&#45;&gt;pass2_init</title>
<path fill="none" stroke="#64748b" d="M449.64,-696.57C449.64,-696.57 449.64,-656.54 449.64,-656.54"/>
<polygon fill="#64748b" stroke="#64748b" points="452.45,-656.54 449.65,-648.54 446.85,-656.54 452.45,-656.54"/>
</g>
<!-- pass2_init&#45;&gt;read_loop -->
<g id="edge15" class="edge">
<title>pass2_init&#45;&gt;read_loop</title>
<path fill="none" stroke="#64748b" d="M405.64,-564.62C405.64,-564.62 405.64,-524.9 405.64,-524.9"/>
<polygon fill="#64748b" stroke="#64748b" points="408.45,-524.9 405.65,-516.9 402.85,-524.9 408.45,-524.9"/>
</g>
<!-- put_loop -->
<g id="node14" class="node">
<title>put_loop</title>
<path fill="#cffafe" stroke="#cbd5e1" d="M571.16,-278.2C571.16,-278.2 410.12,-278.2 410.12,-278.2 404.12,-278.2 398.12,-272.2 398.12,-266.2 398.12,-266.2 398.12,-221.8 398.12,-221.8 398.12,-215.8 404.12,-209.8 410.12,-209.8 410.12,-209.8 571.16,-209.8 571.16,-209.8 577.16,-209.8 583.16,-215.8 583.16,-221.8 583.16,-221.8 583.16,-266.2 583.16,-266.2 583.16,-272.2 577.16,-278.2 571.16,-278.2"/>
<text text-anchor="middle" x="490.64" y="-260.55" font-family="Helvetica,sans-Serif" font-size="11.00">Output Put Loop</text>
<text text-anchor="middle" x="490.64" y="-247.05" font-family="Helvetica,sans-Serif" font-size="11.00">s_put &#45;&gt; s_put_ack</text>
<text text-anchor="middle" x="490.64" y="-233.55" font-family="Helvetica,sans-Serif" font-size="11.00">TileLink Put BF16 output beat</text>
<text text-anchor="middle" x="490.64" y="-220.05" font-family="Helvetica,sans-Serif" font-size="11.00">mask invalid tail lanes</text>
</g>
<!-- normalize&#45;&gt;put_loop -->
<g id="edge17" class="edge">
<title>normalize&#45;&gt;put_loop</title>
<path fill="none" stroke="#64748b" d="M474.02,-327.84C474.02,-327.84 474.02,-287.92 474.02,-287.92"/>
<polygon fill="#64748b" stroke="#64748b" points="476.82,-287.92 474.02,-279.92 471.22,-287.92 476.82,-287.92"/>
</g>
<!-- put_loop&#45;&gt;read_loop -->
<g id="edge18" class="edge">
<title>put_loop&#45;&gt;read_loop</title>
<path fill="none" stroke="#64748b" d="M553.48,-278.57C553.48,-344.12 553.48,-480 553.48,-480 553.48,-480 447.67,-480 447.67,-480"/>
<polygon fill="#64748b" stroke="#64748b" points="447.67,-477.2 439.67,-480 447.67,-482.8 447.67,-477.2"/>
<text text-anchor="middle" x="516.35" y="-435.44" font-family="Helvetica,sans-Serif" font-size="10.00">more elements</text>
</g>
<!-- put_loop&#45;&gt;resp -->
<g id="edge19" class="edge">
<title>put_loop&#45;&gt;resp</title>
<path fill="none" stroke="#64748b" d="M397.93,-244C388.87,-244 382.96,-244 382.96,-244 382.96,-244 382.96,-51.22 382.96,-51.22"/>
<polygon fill="#64748b" stroke="#64748b" points="385.76,-51.22 382.96,-43.22 380.16,-51.22 385.76,-51.22"/>
<text text-anchor="middle" x="394.96" y="-158.35" font-family="Helvetica,sans-Serif" font-size="10.00">done</text>
</g>
</g>
</svg>
